<svg width="296" height="328" viewBox="0 0 296 328" fill="none" xmlns="http://www.w3.org/2000/svg">
<path fill-rule="evenodd" clip-rule="evenodd" d="M-9.95356 44.3021C-11.4683 44.4971 -12.2009 46.2652 -11.2767 47.4956L198.277 326.489C199.207 327.727 201.115 327.492 201.706 326.067L212.886 299.083C213.164 298.414 213.057 297.647 212.608 297.078L41.0878 79.929C39.3762 77.7621 39.7287 74.5971 41.8752 72.8598L52.8895 63.9455C55.036 62.2083 58.1637 62.5567 59.8753 64.7236L221.82 269.75C222.766 270.948 224.652 270.686 225.237 269.276L231.37 254.473C231.648 253.804 231.541 253.037 231.092 252.468L87.3726 70.5153C85.661 68.3483 86.0135 65.1833 88.16 63.4461L97.7422 55.6908C99.8887 53.9536 103.016 54.3019 104.728 56.4689L239.496 227.089C240.443 228.287 242.329 228.026 242.913 226.615L248.491 213.154C248.768 212.485 248.662 211.718 248.212 211.149L131.239 63.0578C129.528 60.8908 129.88 57.7258 132.027 55.9886L142.594 47.4359C144.741 45.6987 147.868 46.0471 149.58 48.214L257.172 184.429C258.119 185.627 260.005 185.365 260.589 183.955L335.621 2.8692C336.212 1.44382 335.04 -0.0985879 333.515 0.0976132L-9.95356 44.3021Z" fill="url(#paint0_linear_53_95)" fill-opacity="0.5"/>
<defs>
<linearGradient id="paint0_linear_53_95" x1="162.046" y1="0.080658" x2="162.046" y2="327.292" gradientUnits="userSpaceOnUse">
<stop stop-color="#1355FF"/>
<stop offset="0.645" stop-color="#0B3399" stop-opacity="0"/>
</linearGradient>
</defs>
</svg>
