<svg width="1167" height="1323" viewBox="0 0 1167 1323" fill="none" xmlns="http://www.w3.org/2000/svg">
<path d="M582.667 337.671C582.667 523.523 452.279 674.058 291.583 674.058C130.888 674.058 0.5 523.523 0.5 337.671C0.5 151.82 130.888 1.28418 291.583 1.28418C452.279 1.28418 582.667 151.82 582.667 337.671Z" stroke="#F6F5FE"/>
<path d="M582.667 1011.45C582.667 1197.3 452.279 1347.83 291.583 1347.83C130.888 1347.83 0.5 1197.3 0.5 1011.45C0.5 825.594 130.888 675.059 291.583 675.059C452.279 675.059 582.667 825.594 582.667 1011.45Z" stroke="#F6F5FE"/>
<path d="M1165.83 337.671C1165.83 523.523 1035.45 674.058 874.75 674.058C714.054 674.058 583.667 523.523 583.667 337.671C583.667 151.82 714.054 1.28418 874.75 1.28418C1035.45 1.28418 1165.83 151.82 1165.83 337.671Z" stroke="#F6F5FE"/>
<path d="M874.25 674.558C874.25 860.41 743.862 1010.95 583.167 1010.95C422.471 1010.95 292.083 860.41 292.083 674.558C292.083 488.707 422.471 338.171 583.167 338.171C743.862 338.171 874.25 488.707 874.25 674.558Z" stroke="#F6F5FE"/>
<path d="M1165.83 1011.45C1165.83 1197.3 1035.45 1347.83 874.75 1347.83C714.054 1347.83 583.667 1197.3 583.667 1011.45C583.667 825.594 714.054 675.059 874.75 675.059C1035.45 675.059 1165.83 825.594 1165.83 1011.45Z" stroke="#F6F5FE"/>
</svg>
