<svg width="1196" height="285" viewBox="0 0 1196 285" fill="none" xmlns="http://www.w3.org/2000/svg">
<path d="M0 40.9814C0 18.8901 17.9086 0.981445 40 0.981445H1196V244.981C1196 267.073 1178.09 284.981 1156 284.981H0V40.9814Z" fill="#1355FF"/>
<ellipse cx="1111.79" cy="85.9814" rx="50.1257" ry="50" fill="#625FFF"/>
<ellipse cx="1057.15" cy="111.481" rx="24.5616" ry="24.5" fill="#706DFF"/>
<path d="M36.3419 161.679C35.943 160.194 37.3055 158.835 38.7945 159.232L115.956 179.856C117.445 180.254 117.944 182.111 116.854 183.198L60.3676 239.542C59.2775 240.63 57.4163 240.132 57.0173 238.647L36.3419 161.679Z" fill="#6B68FF"/>
<path d="M64.3765 203.348C63.4286 202.135 64.1541 200.35 65.6816 200.137L144.801 189.146C146.327 188.934 147.508 190.45 146.929 191.876L116.912 265.719C116.332 267.145 114.426 267.412 113.479 266.2L64.3765 203.348Z" fill="#6461FF"/>
<path d="M186.468 97.9814C186.468 91.351 183.827 84.9922 179.127 80.3038C174.427 75.6154 168.052 72.9814 161.405 72.9814C154.758 72.9814 148.383 75.6154 143.683 80.3038C138.983 84.9922 136.342 91.351 136.342 97.9814L161.405 97.9814H186.468Z" fill="#FFB454"/>
<rect x="158.397" y="0.981445" width="6.01509" height="73" fill="#FFB454"/>
<path d="M136.342 127.081C136.342 118.462 132.909 110.195 126.799 104.1C120.689 98.0055 112.401 94.5814 103.76 94.5814C95.119 94.5814 86.8318 98.0055 80.7215 104.1C74.6112 110.195 71.1785 118.462 71.1785 127.081L103.76 127.081H136.342Z" fill="#FFB454"/>
<rect x="99.8505" y="0.981445" width="7.81961" height="94.9" fill="#FFB454"/>
</svg>
