<svg width="611" height="251" viewBox="0 0 611 251" fill="none" xmlns="http://www.w3.org/2000/svg">
    <path fillRule="evenodd" clipRule="evenodd"
        d="M0 10.9814C0 5.4586 4.47716 0.981445 10 0.981445H90C95.5229 0.981445 100 5.4586 100 10.9814V53.9814C100 59.5043 95.5229 63.9814 90 63.9814H56C52.6863 63.9814 50 66.6677 50 69.9814C50 73.2952 52.6863 75.9814 56 75.9814H90C95.5229 75.9814 100 80.4586 100 85.9814V90.9814C100 96.5043 95.5229 100.981 90 100.981H25C11.1929 100.981 0 89.7886 0 75.9814V63.9814V10.9814Z"
        fill="#e5ebf0" />
    <path fillRule="evenodd" clipRule="evenodd"
        d="M611 240.981C611 246.504 606.523 250.981 601 250.981H537C531.477 250.981 527 246.504 527 240.981V208.061C527 202.539 531.477 198.061 537 198.061H563.96C566.744 198.061 569 195.805 569 193.021C569 190.238 566.744 187.981 563.96 187.981H537C531.477 187.981 527 183.504 527 177.981V176.981C527 171.459 531.477 166.981 537 166.981H590C601.598 166.981 611 176.383 611 187.981V198.061V240.981Z"
        fill="#e5ebf0" />
</svg>