<svg width="1427" height="948" viewBox="0 0 1427 948" fill="none" xmlns="http://www.w3.org/2000/svg">
    <path fill-rule="evenodd" clip-rule="evenodd"
        d="M735.477 1.93215L736.065 0.981445L736.653 1.93215L873.86 223.825L940.575 115.932L941.163 114.981L941.751 115.932L1298.1 692.231L1298.72 693.231H1297.55H1221.54L1317.38 848.231L1318 849.231H1316.82H1183.39L1218.48 905.981L1219.1 906.981H1217.93H292.759H291.583L292.202 905.981L308.742 879.231H142.454H141.278L141.896 878.231L237.74 723.231H123.176H122L122.618 722.231L478.971 145.932L479.559 144.981L480.147 145.932L563.291 280.394L735.477 1.93215ZM562.703 281.345L479.559 146.883L123.794 722.231H238.359L498.249 301.932L498.837 300.981L499.425 301.932L524.699 342.806L562.703 281.345ZM238.916 723.231L143.072 878.231H309.361L388.045 750.981H273.481H272.305L272.924 749.981L289.464 723.231H238.916ZM290.083 722.231H239.534L498.837 302.883L524.111 343.757L290.083 722.231ZM290.64 723.231L274.099 749.981H388.664L405.204 723.231H290.64ZM405.823 722.231H291.258L524.699 344.707L581.981 437.345L405.823 722.231ZM406.38 723.231L389.839 749.981H664.253L680.794 723.231H406.38ZM681.412 722.231H406.999L582.569 438.296L661.906 566.601L584.223 692.231L583.604 693.231H584.78H699.344L681.412 722.231ZM681.97 723.231L665.429 749.981H775.299L758.758 723.231H681.97ZM758.14 722.231H682.588L700.52 693.231H740.208L758.14 722.231ZM759.934 723.231L776.475 749.981H1120.85L1085.76 693.231H818.567L836.499 722.231L837.118 723.231H835.942H759.934ZM817.392 693.231L835.324 722.231H759.315L741.383 693.231H817.392ZM817.949 692.231H1085.14L893.138 381.727L759.544 597.778L817.949 692.231ZM758.956 598.728L816.773 692.231H740.765L720.952 660.189L758.956 598.728ZM758.956 596.827L892.55 380.776L835.268 288.138L701.674 504.189L758.956 596.827ZM701.086 505.14L758.368 597.777L720.364 659.238L663.082 566.601L701.086 505.14ZM701.086 503.238L834.68 287.188L755.343 158.883L621.749 374.934L701.086 503.238ZM621.161 375.884L700.498 504.189L662.494 565.65L583.157 437.345L621.161 375.884ZM620.573 374.934L582.569 436.394L525.287 343.757L563.291 282.296L620.573 374.934ZM621.161 373.983L563.879 281.345L736.065 2.88285L873.272 224.776L835.268 286.237L755.931 157.932L755.343 156.981L754.755 157.932L621.161 373.983ZM293.377 905.981L309.918 879.231H855.22H856.396L855.777 878.231L837.845 849.231H1182.22L1217.31 905.981H293.377ZM854.602 878.231L836.67 849.231H604.058H602.882L603.501 848.231L663.635 750.981H389.221L310.537 878.231H854.602ZM1181.6 848.231H837.227L777.093 750.981H1121.47L1181.6 848.231ZM836.051 848.231L775.917 750.981H664.811L604.676 848.231H836.051ZM739.589 692.231L720.364 661.14L701.138 692.231H739.589ZM719.776 660.189L662.494 567.551L585.398 692.231H699.963L719.776 660.189ZM1220.92 692.231H1296.93L941.163 116.883L874.448 224.776L931.73 317.414L959.853 271.932L960.441 270.981L961.029 271.932L1220.92 692.231ZM835.856 287.188L873.86 225.727L931.142 318.364L893.138 379.825L835.856 287.188ZM1086.93 693.231L1122.02 749.981H1198.03L1162.94 693.231H1086.93ZM1162.32 692.231H1086.31L893.726 380.776L931.73 319.315L1162.32 692.231ZM1163.5 692.231L932.318 318.364L960.441 272.883L1219.74 692.231H1163.5ZM1164.12 693.231H1220.36L1316.21 848.231H1182.78L1122.64 750.981H1198.65H1199.82L1199.21 749.981L1164.12 693.231Z"
        fill="#F6F5FE" />
    <g filter="url(#filter0_f_305_12195)">
        <rect x="936" y="217.981" width="291" height="253" fill="#FFB454" fill-opacity="0.02" />
    </g>
    <g filter="url(#filter1_f_305_12195)">
        <rect x="150" y="494.981" width="291" height="253" fill="#1355FF" fill-opacity="0.02" />
    </g>
    <defs>
        <filter id="filter0_f_305_12195" x="736" y="17.9814" width="691" height="653" filter-units="userSpaceOnUse"
            color-interpolation-filters="sRGB">
            <feFlood flood-opacity="0" result="BackgroundImageFix" />
            <feBlend mode="normal" in="SourceGraphic" in2="BackgroundImageFix" result="shape" />
            <feGaussianBlur stdDeviation="100" result="effect1_foregroundBlur_305_12195" />
        </filter>
        <filter id="filter1_f_305_12195" x="-50" y="294.981" width="691" height="653" filter-units="userSpaceOnUse"
            color-interpolation-filters="sRGB">
            <feFlood flood-opacity="0" result="BackgroundImageFix" />
            <feBlend mode="normal" in="SourceGraphic" in2="BackgroundImageFix" result="shape" />
            <feGaussianBlur stdDeviation="100" result="effect1_foregroundBlur_305_12195" />
        </filter>
    </defs>
</svg>