<svg width="80" height="60" viewBox="0 0 80 60" fill="none" xmlns="http://www.w3.org/2000/svg">
<g clip-path="url(#clip0_103_188)">
<path d="M0 0V60H80V0H0Z" fill="#68BFE5"/>
<path d="M52.6124 24.15V41.2C52.6124 46.775 62.6874 50.075 62.6874 50.075C62.6874 50.075 72.7499 46.775 72.7499 41.2V24.15H52.6124Z" fill="white"/>
<path d="M61.2874 30.15V37.825H52.6124V40.6125H61.2874V49.55L62.6874 50.0875L64.0749 49.55V40.625H72.7499V37.825H64.0749V30.15H61.2874Z" fill="#D21034"/>
<path d="M52.6125 24.15H72.75V30.75H52.6L52.6125 24.15Z" fill="#D21034"/>
<path d="M54.2239 29.0749C54.8481 29.0749 55.3542 28.6657 55.3542 28.1608C55.3542 27.6559 54.8481 27.2466 54.2239 27.2466C53.5997 27.2466 53.0936 27.6559 53.0936 28.1608C53.0936 28.6657 53.5997 29.0749 54.2239 29.0749Z" fill="white" stroke="black" stroke-width="0.066486" stroke-miterlimit="3"/>
<path d="M54.2239 28.194C54.7792 28.194 55.2295 27.9671 55.2295 27.6871C55.2295 27.4071 54.7792 27.1801 54.2239 27.1801C53.6685 27.1801 53.2183 27.4071 53.2183 27.6871C53.2183 27.9671 53.6685 28.194 54.2239 28.194Z" fill="white" stroke="black" stroke-width="0.066486" stroke-miterlimit="3"/>
<path d="M54.2239 29.2162C54.7792 29.2162 55.2295 28.9893 55.2295 28.7093C55.2295 28.4293 54.7792 28.2023 54.2239 28.2023C53.6685 28.2023 53.2183 28.4293 53.2183 28.7093C53.2183 28.9893 53.6685 29.2162 54.2239 29.2162Z" fill="white" stroke="black" stroke-width="0.066486" stroke-miterlimit="3"/>
<path d="M54.2239 28.6677C54.7792 28.6677 55.2295 28.4407 55.2295 28.1608C55.2295 27.8808 54.7792 27.6538 54.2239 27.6538C53.6685 27.6538 53.2183 27.8808 53.2183 28.1608C53.2183 28.4407 53.6685 28.6677 54.2239 28.6677Z" fill="white" stroke="black" stroke-width="0.066486" stroke-miterlimit="3"/>
<path d="M72.25 29.425L72.0875 28.975C72.0875 28.975 71.6375 28.7875 71.6 28.55C71.525 27.9125 71.3 27.6751 70.95 27.5751C70.7615 27.5216 70.5597 27.5441 70.3875 27.6376C70.2875 27.7876 69.7625 27.7875 69.4875 27.8C69.2 27.8 69.1875 27.675 69.1875 27.675C68.975 27.675 68.875 27.5126 68.875 27.5126C68.7375 27.2251 68.625 27.1126 68.55 27.0751C68.925 27.0751 69.2 26.9125 69.625 26.475C70.075 26 70.4 26.175 70.4 26.175C70.175 26.625 70.475 26.5875 70.475 26.5875C71.075 26.275 70.55 25.5 70.375 25.5375C70.1875 25.575 70.1375 25.4501 70.1375 25.4501C70.1375 25.5876 69.9375 25.65 69.9375 25.65C70.0875 24.7625 69.5625 24.525 69.5625 24.525C69.4875 24.6 69.4375 24.7626 69.4375 24.7626C69.2875 25.3001 68.8 25.2126 68.25 24.9501C67.7 24.7001 66.25 25.225 65.7875 25.4125C65.325 25.6 64.4875 25.875 63.7375 25.4625C62.9875 25.0375 62.8 25.1126 62.5 25.2001C62.2125 25.2751 61.6875 25.4 61.5 25.3C61.3677 25.2333 61.223 25.195 61.075 25.1875C61.125 25.1625 61.05 25.0375 61.05 25.0375C60.8125 24.725 61.075 24.5375 61.075 24.5375C61.075 24.5375 60.65 24.6626 60.825 25.3876L60.9 25.4875C60.9 25.4875 60.95 25.725 61.075 25.7875V25.8375C61.075 25.8375 61.1875 25.7875 61.2125 25.9375C61.25 26.0875 61.4125 25.9375 61.475 25.8125C61.475 25.8125 61.3625 26.4875 62.1875 26.65C62.1875 26.65 62.1 26.5375 62.125 26.475C62.1625 26.4 62.025 26.35 62.0375 26.25C62.05 26.1375 61.8375 26.1001 62 26.0126C62.175 25.9376 62.25 25.775 62.625 26C62.9875 26.2125 63.275 26.1625 63.275 26.1625C63.275 26.1625 63.05 25.7125 63.175 25.7125C63.3 25.7125 63.85 26.3875 64.1125 26.3625C64.3875 26.325 64.9125 26.0125 65.175 26.125C65.175 26.125 65.2 26.0001 66.2 25.8251C67.2 25.6501 68.45 25.15 68.9125 25.5875C68.9125 25.5875 68.9625 25.9375 69.1625 26.025C69.1625 26.025 69.125 26.75 67.8875 26.35L67.4375 26.225C67.4375 26.225 67.3625 26.0125 65 26.625C65 26.625 64.8625 26.675 64.7625 26.7375C64.675 26.8 64.55 26.7 64.075 26.8625C63.6125 27.05 61.8625 27.6125 60.7875 27.4125C60.55 27.3375 60.3375 27.375 60.325 27.3375C60.325 27.3 60.45 27.35 60.45 27.35C60.375 27.2625 60.3375 27.25 60.3375 27.25C59.4375 27.15 59.5875 26.75 59.5875 26.75L59.6375 26.875C59.7875 26.675 59.5875 26.225 59.5875 26.225H59.575C59.5755 26.2126 59.5755 26.2 59.575 26.1875L59.6375 26.1376C60.075 25.7626 60.575 25.7001 60.575 25.7001C60.275 25.3251 59.65 25.525 59.65 25.525C59.6625 25.0875 59.475 24.5625 59.475 24.5625C59.09 24.6257 58.7447 24.8365 58.5125 25.15C58.4875 24.6875 57.9 24.425 57.9 24.425C58.125 24.6875 57.9875 25.3251 57.9875 25.3251H58.0125H57.95L57.9375 25.4625H57.9125C57.9125 25.4625 57.7 25.5375 57.45 26.1125C57.45 26.1125 57.425 26.2375 57.325 26.3625V26.3125C57.325 26.3125 57.0375 26.6875 56.4 26.3125C56.4 26.3125 55.525 25.8 55.2 25.8125C54.9 25.8375 54.7 25.975 54.7125 26.0625C54.7125 26.0625 54 26.0125 53.7625 26.4125C53.7625 26.4125 53.225 26.6125 53.6875 27.0375C53.6875 27.0375 53.75 27.2375 53.875 27.3375C53.875 27.3375 53.8625 26.9375 53.9625 27.05L54.025 27.125C54.0375 27.175 54.0875 27.325 54.175 27.4125L54.25 27.3876C54.25 27.2876 54.275 27.1625 54.3 27.1125H54.325L54.45 27.3125L54.575 27.2375C54.65 27.2375 54.7375 27.3 54.7375 27.3L54.9 27.1625C55.0625 27.1875 55.1125 26.8625 55.1125 26.8625C55.178 26.8788 55.2461 26.8817 55.3127 26.8709C55.3793 26.8602 55.443 26.8361 55.5 26.8C55.575 27.05 56.15 27.3375 56.15 27.3375H56.175L56.1 27.3876C56.3625 27.5751 56.85 27.525 56.85 27.525C56.65 27.6 56.675 27.9875 56.675 27.9875C56.55 28.0375 56.55 28.15 56.55 28.15C56.95 28.3125 57.2125 28.175 57.2125 28.175C57.2375 28.3 57.2125 28.3251 57.2125 28.3251C57.05 28.6626 56.975 29 56.975 29H56.9875V29.025C56.9875 29.025 56.275 29.275 55.975 29.6125C55.975 29.6125 55.9375 29.5126 55.85 29.5126C55.7625 29.5126 55.5 29.2875 55.375 29.25C55.25 29.2125 55.0625 29.2875 55 29.225C54.9625 29.175 54.9875 28.775 54.9 28.725L54.8125 28.475C54.7625 28.6 54.5125 28.5751 54.5125 28.5751L54.4125 28.65L54.3125 28.6376C54.2875 28.6376 54.2625 28.7001 54.25 28.7626L54.2125 28.8V28.725C54.175 28.7625 54.075 28.7125 54.0375 28.7125C54.0125 28.7125 53.9875 28.7626 53.975 28.8251L53.7375 28.8375C53.7 28.8625 53.7375 29.1625 53.7375 29.1625C53.45 29.3125 53.5875 29.55 53.5875 29.55C53.7375 30.3 55.025 29.9625 55.125 30.0625C55.225 30.1625 55.45 30.1875 55.5625 30.1875C55.6875 30.1875 55.825 30.4625 55.9875 30.4875C56.15 30.5125 55.9875 30.2625 56.75 30.0875C57.5125 29.9 57.775 29.5875 57.775 29.5875C58.0125 29.5375 58.075 29.2501 58.0875 29.1376L58.1125 29.3125C58.15 29.575 57.9625 29.6875 57.9625 29.6875L58.625 29.475C58.8875 29.4125 58.85 29.175 58.85 29.175C59.1 29.9 59.5625 29.9501 59.5625 29.9501C59.65 29.6751 59.6375 29.5875 59.6375 29.5875H59.85C59.85 29.425 59.725 29.3126 59.6375 29.2626L59.9625 29.4501L60.0875 29.4375C60.0875 29.55 60.25 29.65 60.25 29.65L60.275 29.5C60.425 29.7 60.7 29.625 60.7 29.625C60.6936 29.5913 60.6852 29.5579 60.675 29.525C61.2625 29.8875 62.2 29.425 62.2 29.425C62.45 29.475 62.4875 29.3251 62.4875 29.3251C62.7625 29.3626 62.8375 29.1625 62.8375 29.1625C63.5 29.1125 63.975 28.6376 63.975 28.6376C64.3125 28.6126 64.325 28.375 64.325 28.375C64.325 28.375 64.65 28.4375 64.975 28.0375C65.725 26.975 66.825 27.5375 66.825 27.5375L66.1875 27.5751C64.5 27.5626 65.2 28.7001 65.2 28.7001H65.3C65.4625 28.7251 66.0125 29.1625 65.8 29.475V29.5C65.45 29.9625 64.825 29.525 64.6375 29.125C64.4625 28.725 64.0875 28.8125 64.0875 28.8125C64.0875 28.8125 63.15 28.975 63.5375 29.725C63.55 29.9125 63.6625 30.1251 64.0125 30.3251C64.2 30.6001 64.825 30.625 65.275 30.525C65.5 30.5 66.625 30 66.625 30C66.7125 29.75 67 29.8126 67.25 29.4501C67.5 29.1001 66.8875 28.975 66.75 28.775C66.625 28.5875 66.7875 28.625 66.7875 28.625C67.3375 28.9125 67.3875 27.975 67.3875 27.975C67.4039 28.1284 67.4629 28.2742 67.5579 28.3957C67.6529 28.5172 67.7801 28.6097 67.925 28.6625C68.2125 28.375 68 27.7626 68 27.7626C68.7125 29.0376 69.1375 28.8251 69.1375 28.8251C68.7625 28.6001 68.95 28.275 68.95 28.275C69.2875 29.625 70.7 28.4501 70.7 28.4501C70.625 28.6501 70.7 28.7626 70.825 28.8876C70.95 29.0126 71.1 29.0625 71.025 29.3C70.9625 29.525 70.3 29.475 70.3 29.475C70.3 29.475 69.675 29.45 69.725 29.975C69.7625 30.1 70.175 30.15 70.35 30.1125C70.35 30.1125 70.275 30.1375 70.5125 30.1625H70.7875C71.05 30.1625 71.35 30.1125 71.35 30.1125C71.7125 30.0375 71.65 29.9125 71.65 29.9125C72.2125 29.8125 72.275 29.4375 72.275 29.4375L72.25 29.425Z" fill="#FFD100" stroke="black" stroke-width="0.1" stroke-miterlimit="3"/>
<path d="M53.7 27.0875C53.7 27.0875 53.7375 27.025 53.7875 27.0125C53.8375 27.0125 53.8875 27.0375 53.9375 27.1125L53.975 27.0875C53.975 27.0875 53.825 26.8625 53.875 26.7125C53.9125 26.6375 53.975 26.5875 54.075 26.575V26.5375C53.95 26.5625 53.875 26.6125 53.85 26.7C53.8364 26.7274 53.8279 26.7571 53.825 26.7875C53.825 26.8625 53.85 26.9375 53.8875 27C53.8587 26.9791 53.8228 26.9701 53.7875 26.975C53.7657 26.9777 53.745 26.986 53.7275 26.9991C53.7099 27.0123 53.6961 27.0299 53.6875 27.05L53.7 27.0875ZM71.325 30.0875C70.95 30.15 70.3875 30.175 70.3375 30.0625C70.3375 30.0375 70.3375 29.9625 70.6375 29.7625L70.6125 29.7C70.35 29.875 70.2375 29.9875 70.275 30.075C70.3625 30.3 71.175 30.175 71.3375 30.15L71.325 30.0875ZM64.025 30.3C63.9375 30.175 63.9875 29.9875 64.15 29.7625L64.0875 29.725C63.9125 29.975 63.875 30.175 63.9625 30.35L64.025 30.3Z" fill="black"/>
<path d="M63.5124 29.725C63.5124 29.9625 63.6874 30.175 63.9999 30.3625L64.0374 30.3C63.7374 30.125 63.5874 29.925 63.5874 29.725C63.5624 29.4125 63.8999 29.1625 63.9124 29.1625L63.8749 29.1125C63.8499 29.1125 63.4999 29.375 63.5124 29.7375V29.725ZM70.0124 29.8125C69.9124 29.975 69.9499 30.1625 69.9499 30.1625H70.0124C70.0124 30.15 69.9874 29.9875 70.0749 29.85C70.1045 29.8096 70.1418 29.7755 70.1848 29.7498C70.2277 29.724 70.2753 29.7071 70.3249 29.7001V29.6376C70.1874 29.6626 70.0749 29.725 70.0249 29.8125H70.0124ZM55.1249 26.8876H55.0999V26.9125C55.0999 26.9125 55.0749 27.1125 54.9749 27.1625C54.9509 27.1723 54.924 27.1723 54.8999 27.1625L54.7374 27.0751C54.7124 27.0501 54.6874 27.0375 54.6374 27.05C54.6174 27.026 54.6026 26.998 54.5939 26.9678C54.5853 26.9377 54.5831 26.9061 54.5874 26.875C54.5999 26.7875 54.6624 26.7 54.7874 26.625L54.7624 26.5875C54.6374 26.675 54.5624 26.775 54.5499 26.875C54.5499 27 54.6124 27.0751 54.6124 27.0751V27.0875H54.6374C54.6749 27.075 54.6749 27.0875 54.7124 27.1125L54.8874 27.2125H55.0124C55.0999 27.15 55.1374 26.975 55.1374 26.9375C55.5374 27.025 55.8624 26.5251 55.8874 26.5126L55.8499 26.4875C55.8499 26.4875 55.5124 26.9876 55.1249 26.8876Z" fill="black"/>
<path d="M54.1374 26.8125C54.1244 26.8992 54.1421 26.9876 54.1874 27.0625C54.2249 27.125 54.2749 27.1625 54.3124 27.175C54.3749 27.175 54.4124 27.1375 54.4624 27.1C54.4874 27.075 54.5124 27.05 54.5374 27.05L54.5749 27.075L54.5999 27.05L54.5374 27.0125C54.4999 27.0125 54.4624 27.0375 54.4374 27.075C54.4124 27.1125 54.3624 27.1375 54.3124 27.1375C54.2874 27.1375 54.2499 27.1 54.2124 27.0375C54.1922 27.0065 54.1784 26.9716 54.172 26.9351C54.1655 26.8986 54.1665 26.8612 54.1749 26.825C54.2249 26.65 54.4374 26.5125 54.4374 26.5125L54.4249 26.475C54.4124 26.475 54.1874 26.625 54.1374 26.8125ZM53.5874 29.4C53.5999 29.325 53.6624 29.275 53.7499 29.225C53.7249 29.225 53.8249 29.3 53.9124 29.3L53.9749 29.2625C53.9999 29.2875 54.1499 29.425 54.1499 29.6C54.1499 29.6375 54.1499 29.675 54.1249 29.7125L54.1624 29.725C54.2749 29.4625 53.9874 29.225 53.9874 29.225H53.9624L53.9124 29.2625C53.8374 29.2625 53.7499 29.1875 53.7499 29.1875C53.6249 29.2375 53.5749 29.3125 53.5499 29.3875L53.5874 29.4ZM54.8749 28.725C54.7874 28.7375 54.5624 28.775 54.4874 28.9C54.4624 28.95 54.4499 29 54.4749 29.05L54.4999 29.125C54.5749 29.325 54.6499 29.525 54.7374 29.575L54.7499 29.5375C54.6749 29.5 54.5999 29.2875 54.5374 29.1125L54.5124 29.0375C54.5015 29.0185 54.4957 28.997 54.4957 28.975C54.4957 28.9531 54.5015 28.9315 54.5124 28.9125C54.5749 28.825 54.7874 28.7875 54.8874 28.775C54.9374 28.775 54.9499 28.9625 54.9624 29.075H54.9999C54.9874 28.9 54.9624 28.725 54.8749 28.725Z" fill="black"/>
<path d="M54.2375 28.925C54.1875 28.9625 54.2 29.025 54.2 29.0375C54.2 29.05 54.225 29.5375 54.45 29.6375L54.4625 29.6C54.2625 29.5125 54.2375 29.0375 54.2375 29.025C54.2375 29.025 54.2375 28.975 54.2625 28.95C54.3 28.925 54.3625 28.9125 54.4625 28.95L54.475 28.9125C54.3625 28.875 54.2875 28.8875 54.2375 28.9125V28.925Z" fill="black"/>
<path d="M54.05 28.9625C53.95 29.0375 53.9625 29.2375 53.9625 29.25H54C54 29.25 54 29.05 54.075 29C54.1125 28.975 54.15 28.975 54.2 29L54.2125 28.95C54.15 28.925 54.0875 28.925 54.05 28.95V28.9625Z" fill="black"/>
<path d="M59.5511 26.2743C59.5511 26.2743 59.6591 26.5236 59.6591 26.7147C59.6591 26.748 59.6425 26.7729 59.6342 26.7978L59.5926 26.6898L59.5677 26.7729C59.5677 26.7729 59.5178 26.8893 59.5926 27.0139C59.6924 27.1801 59.9417 27.2799 60.3406 27.3214V27.3297C60.329 27.3295 60.3175 27.3324 60.3074 27.338L60.2907 27.3547V27.3879C60.3074 27.4295 60.3489 27.4295 60.4403 27.4295L60.4985 27.4378L60.5484 27.4544L60.5401 27.4461C60.6232 27.4461 60.7312 27.471 60.8392 27.5126L60.7561 27.5292L60.8476 27.5707C60.8559 27.5707 61.5706 27.8616 61.8615 28.0943C61.7784 28.1691 61.421 28.4267 60.806 28.2772L60.7063 28.2522L60.7728 28.3353C60.7728 28.3353 61.18 28.8007 61.2631 29.0833C61.1218 29.0833 60.5816 29.0833 60.3905 28.9171L60.3489 28.9586C60.3489 28.9586 60.5982 29.3409 60.6647 29.6318C60.5816 29.6484 60.4154 29.6567 60.3074 29.5155L60.2575 29.4573L60.2326 29.6235C60.1827 29.5819 60.1162 29.5321 60.1162 29.4656V29.4323L59.9666 29.4573L59.6508 29.2661C59.6347 29.2543 59.6181 29.2432 59.601 29.2329L59.5677 29.2911L59.6176 29.316C59.6841 29.3659 59.8004 29.4573 59.8087 29.5902H59.6093V29.6318C59.6093 29.6567 59.6093 29.7482 59.5345 29.9393C59.443 29.9227 59.094 29.798 58.8862 29.208L58.8197 29.2246V29.2412C58.8197 29.2994 58.8031 29.4323 58.6203 29.4822L58.0801 29.6484C58.1274 29.5804 58.1508 29.4985 58.1466 29.4157V29.3492C58.1364 29.2776 58.1309 29.2055 58.1299 29.1332C58.1299 29.0085 58.1549 28.9337 58.2463 28.8838L58.2131 28.8174C58.2047 28.8174 57.4152 29.1415 57.0246 29.0085C57.0412 28.9254 57.1077 28.6594 57.2407 28.3769L57.2241 28.3935C57.249 28.3769 57.2739 28.3436 57.249 28.2107V28.1691L57.2075 28.1857C57.2075 28.1857 56.9581 28.3021 56.5925 28.1691C56.5925 28.1359 56.6174 28.086 56.6922 28.0528L56.7171 28.0445V27.978C56.7171 27.8782 56.7254 27.6455 56.8667 27.5957L56.8501 27.5292C56.8501 27.5292 56.4262 27.5624 56.1686 27.4211C56.2799 27.3411 56.4077 27.2872 56.5426 27.2632H56.5675V27.23C56.5664 27.1642 56.5523 27.0992 56.526 27.0388C56.6257 27.0721 56.7421 27.097 56.7836 27.0638L56.8002 27.0555L56.7836 26.7978H56.7171L56.7254 27.0139L56.4761 26.9557L56.3764 26.9225L56.4429 27.0056C56.4831 27.0642 56.5035 27.1341 56.501 27.2051C56.3502 27.2376 56.2084 27.3029 56.0855 27.3962L56.0439 27.4295L56.0855 27.4544C56.285 27.5874 56.5925 27.604 56.7504 27.5957C56.6796 27.7076 56.6421 27.8373 56.6423 27.9697V28.0029C56.6093 28.0222 56.5809 28.0486 56.5594 28.0802C56.5378 28.1119 56.5236 28.1479 56.5177 28.1857V28.2107L56.5343 28.219C56.7404 28.3138 56.9744 28.3286 57.1908 28.2605V28.3353C57.0246 28.6844 56.9415 29.0251 56.9415 29.0251V29.0584H56.9664C57.2906 29.1913 57.8557 29.0168 58.1133 28.9254C58.0801 28.9836 58.0551 29.0501 58.0551 29.1332C58.0562 29.2278 58.0645 29.3223 58.0801 29.4157C58.0801 29.6069 57.9554 29.6817 57.9471 29.6817L57.972 29.7482L58.6369 29.5487C58.7865 29.5071 58.8447 29.4157 58.8696 29.3409C59.1272 29.9559 59.5345 30.0058 59.5594 30.0141H59.5843L59.5926 29.9892C59.6366 29.8831 59.6646 29.771 59.6757 29.6567C59.7422 29.6541 59.8087 29.6514 59.8752 29.6484V29.6069C59.8752 29.5487 59.8669 29.4988 59.842 29.4573L59.9583 29.5238L60.0664 29.5071C60.0913 29.6152 60.2243 29.7066 60.2409 29.7149L60.2824 29.7398L60.3074 29.5986C60.4736 29.7398 60.698 29.6983 60.7146 29.6983L60.7395 29.69V29.6567C60.7063 29.4323 60.5567 29.1664 60.4653 29.0251C60.7561 29.1581 61.288 29.1498 61.313 29.1498H61.3462V29.1082C61.2367 28.8333 61.0791 28.58 60.8808 28.3603C61.5623 28.4849 61.928 28.1276 61.9446 28.1109L61.9695 28.086L61.9363 28.0694C61.6376 27.8559 61.3138 27.6801 60.9722 27.5458L61.047 27.5292L60.9639 27.4876C60.8146 27.4114 60.6495 27.3716 60.4819 27.3713C60.3988 27.2716 60.3572 27.2632 60.3489 27.2549C59.8835 27.2051 59.7173 27.0804 59.6508 26.9807V26.9557L59.6674 26.9308C59.709 26.8726 59.7256 26.7978 59.7256 26.7147C59.7256 26.4987 59.6176 26.2576 59.6176 26.2493L59.5511 26.2743Z" fill="black"/>
<path d="M57.4318 26.1413C57.4318 26.1413 57.3819 26.3906 57.1658 26.5153C56.9996 26.5984 56.7919 26.5984 56.5342 26.4904L56.501 26.482V26.5153C56.5195 26.6222 56.5792 26.7177 56.6672 26.7812C56.7752 26.8643 56.9414 26.8976 57.1575 26.881C57.0827 26.9641 56.8583 27.2466 56.8583 27.5292V27.5708C56.8916 27.5874 57.2406 27.6871 57.4069 27.4793C57.4069 27.5624 57.4401 27.8533 57.5481 27.9614C57.6146 28.0278 57.6312 28.1109 57.6312 28.1857C57.6312 28.2522 57.6146 28.3021 57.6146 28.3021L57.598 28.352L57.6396 28.3187C57.6562 28.3104 57.9803 28.0694 58.08 27.7619C58.08 27.7619 58.1382 27.6788 58.2379 27.6539V27.6954C58.2379 27.8201 58.2878 28.0362 58.6368 28.1691L58.6618 28.1774V28.1525C58.6608 28.1331 58.6608 28.1137 58.6618 28.0943C58.6618 28.0029 58.6618 27.845 58.7532 27.7619C58.79 27.7277 58.8147 27.6825 58.8237 27.6331C58.8327 27.5836 58.8255 27.5326 58.8031 27.4876C58.8779 27.5043 59.0441 27.5624 59.1106 27.6871C59.2103 27.8699 59.551 27.7203 59.5676 27.7203L59.5593 27.6788C59.5593 27.6788 59.4097 27.712 59.3183 27.6539C59.2992 27.6389 59.2833 27.62 59.2719 27.5986C59.2604 27.5771 59.2536 27.5535 59.2518 27.5292L59.2352 27.3297C59.2352 27.2466 59.2186 27.1885 59.177 27.1469C59.2186 27.1469 59.31 27.1469 59.3433 27.23C59.4097 27.363 59.6175 27.3713 59.6258 27.3713L59.7006 27.3796L59.6424 27.338C59.6424 27.338 59.4596 27.2217 59.4928 27.0638L59.5178 26.9474C59.5676 26.7397 59.6508 26.3989 59.576 26.1829L59.5427 26.1995C59.5593 26.2493 59.5676 26.3158 59.5676 26.3823C59.5676 26.5651 59.5095 26.7979 59.4845 26.9391L59.4513 27.0555C59.45 27.0693 59.45 27.0832 59.4513 27.097C59.4513 27.2051 59.5095 27.2799 59.5593 27.3214C59.5012 27.3131 59.4181 27.2799 59.3931 27.2134C59.3349 27.097 59.202 27.097 59.1438 27.1053L59.0939 27.1137L59.1272 27.1469C59.1854 27.1801 59.1937 27.23 59.1937 27.338L59.2103 27.5292C59.2186 27.5957 59.2518 27.6455 59.2934 27.6788C59.3433 27.712 59.3931 27.712 59.4347 27.7203C59.3349 27.7453 59.1937 27.7619 59.1438 27.6705C59.0524 27.4876 58.7864 27.4461 58.7781 27.4378H58.7366L58.7532 27.471C58.7532 27.471 58.7864 27.5209 58.7864 27.5874C58.7864 27.6289 58.7698 27.6871 58.7283 27.7287C58.6368 27.8201 58.6202 27.9946 58.6202 28.086V28.1193C58.321 27.9946 58.2712 27.8118 58.2712 27.7037V27.6206L58.2878 27.5957H58.2545C58.2108 27.6031 58.1693 27.6205 58.1333 27.6464C58.0973 27.6723 58.0677 27.7061 58.0468 27.7453C57.9642 27.9484 57.8294 28.1261 57.6562 28.2605C57.661 28.2331 57.6637 28.2053 57.6645 28.1774C57.6645 28.1026 57.6479 28.0112 57.5814 27.9364C57.4567 27.8201 57.4401 27.4378 57.4401 27.4378V27.3713L57.4069 27.4295C57.2739 27.6622 56.8916 27.5458 56.8833 27.5458C56.8667 27.2549 57.2157 26.8726 57.2157 26.8643L57.2489 26.8311H57.1991C56.9747 26.8643 56.8002 26.8311 56.6838 26.748C56.6177 26.6953 56.571 26.6223 56.5508 26.5402C56.8002 26.6316 57.0162 26.6399 57.1825 26.5485C57.2543 26.5049 57.3165 26.447 57.3651 26.3784C57.4137 26.3097 57.4477 26.2319 57.465 26.1496C57.7143 25.6011 57.9221 25.5097 57.9221 25.5097L57.9138 25.4764C57.8972 25.4764 57.6811 25.5595 57.4318 26.1413Z" fill="black"/>
<path d="M57.9887 25.3185H57.972L57.7726 25.5928H57.8308C58.4509 25.6416 59.0324 25.9132 59.468 26.3573L59.4929 26.3823L59.6841 26.1745L59.6674 26.1496C59.1272 25.3019 57.997 25.3185 57.9804 25.3185H57.9887ZM58.0053 25.3933C58.1383 25.3933 59.1023 25.4182 59.6009 26.1662L59.4929 26.2826C59.0544 25.8659 58.4905 25.6058 57.8889 25.5429C57.9276 25.493 57.9664 25.4431 58.0053 25.3933Z" fill="black"/>
<path d="M57.8307 25.8836C57.7413 26.0006 57.6814 26.1375 57.6562 26.2825L57.6645 26.3158C57.6068 26.3764 57.5622 26.4483 57.5336 26.5269C57.505 26.6056 57.493 26.6893 57.4983 26.7729C57.4983 26.8809 57.5149 26.989 57.5482 27.0887L57.5731 27.1469C57.6728 27.4294 57.7642 27.6788 58.2213 27.5292C58.6535 27.3962 58.6701 27.3629 58.7782 27.1801L58.8114 27.1386C58.8696 27.0388 58.9361 27.0222 59.0025 26.9973C59.0857 26.9723 59.1688 26.9474 59.2519 26.7978L59.3184 26.6898C59.4015 26.5817 59.5012 26.4405 59.5095 26.2742H59.4763C59.4515 26.4185 59.3884 26.5534 59.2934 26.6648L59.2103 26.7812C59.1922 26.8271 59.163 26.8679 59.1253 26.8998C59.0876 26.9317 59.0425 26.9538 58.9942 26.964C58.9498 26.9725 58.9076 26.9902 58.8704 27.0159C58.8331 27.0417 58.8017 27.075 58.7782 27.1136L58.7449 27.1635C58.6452 27.338 58.6286 27.3629 58.2047 27.4959C57.7892 27.6289 57.7061 27.4211 57.6063 27.1302L57.5814 27.0721C57.4651 26.7563 57.5565 26.4405 57.7144 26.3241L57.7642 26.2825L57.6895 26.2909V26.2825C57.6895 26.2244 57.7476 26.0665 57.8557 25.9086C57.9554 25.7756 58.1881 25.6509 58.1881 25.6426L58.1715 25.6094C58.1549 25.6177 57.9305 25.7507 57.8307 25.8836Z" fill="black"/>
<path d="M57.6313 27.0388C57.7061 27.0887 57.8059 27.0804 57.9388 27.0388C57.9388 27.0804 57.9388 27.1801 58.0219 27.2466C58.1217 27.3297 58.2713 27.3463 58.479 27.2964V27.2549C58.2796 27.3048 58.13 27.2881 58.0469 27.2133C58.0204 27.1877 58 27.1565 57.9871 27.122C57.9742 27.0875 57.969 27.0506 57.9721 27.0139V26.9806L57.9471 26.9973C57.8225 27.0471 57.7227 27.0554 57.6479 26.9973C57.5233 26.9141 57.5316 26.6898 57.5316 26.6898H57.4984C57.4984 26.6898 57.4817 26.9391 57.6313 27.0388Z" fill="black"/>
<path d="M57.864 26.7313C57.8141 26.7479 57.7975 26.7895 57.7975 26.8227V26.8477C57.8141 26.9474 57.9222 27.0139 58.0136 27.0388C58.1133 27.0637 58.2297 27.0721 58.2712 27.0139C58.2878 26.9889 58.3045 26.9474 58.2712 26.8726C58.2355 26.8025 58.1741 26.7487 58.0999 26.7224C58.0257 26.6961 57.9442 26.6993 57.8723 26.7313H57.864ZM58.0302 27.0056C57.9471 26.9806 57.8474 26.9225 57.8391 26.8394C57.8391 26.8394 57.8307 26.7812 57.8806 26.7646C57.9448 26.7385 58.0165 26.7378 58.0813 26.7624C58.146 26.7871 58.199 26.8354 58.2297 26.8975C58.2546 26.9308 58.2546 26.964 58.238 26.9806C58.213 27.0222 58.1216 27.0305 58.0302 27.0056ZM57.997 27.23C57.972 27.4377 57.997 27.446 58.0053 27.446H58.0219L58.0385 27.4377L58.1549 27.2715L58.0053 27.205V27.23H57.997ZM58.0385 27.2632L58.0967 27.2881L58.0302 27.3796V27.2632H58.0385ZM57.6895 27.0637L57.6812 27.2549L57.8474 27.0554L57.6812 27.0388V27.0637H57.6895ZM57.7227 27.0804H57.7726L57.7227 27.1469V27.0804Z" fill="black"/>
<path d="M57.5732 26.9973C57.5732 26.9973 57.6978 27.2383 57.7228 27.3297C57.7311 27.3796 57.8059 27.4461 57.889 27.471C57.9721 27.5042 58.0552 27.5042 58.1134 27.4627L58.2214 27.3713C58.2546 27.3297 58.2713 27.3214 58.3045 27.3297V27.2882C58.2546 27.2882 58.2297 27.3048 58.1965 27.338L58.0884 27.4211C58.0219 27.471 57.9471 27.4544 57.9056 27.4378C57.8225 27.4128 57.7643 27.3546 57.756 27.3131C57.7311 27.23 57.6147 26.989 57.6064 26.9807L57.5732 26.9973ZM57.7394 26.2826C57.6457 26.3319 57.5743 26.4151 57.5399 26.5153L57.5732 26.5236C57.5732 26.5236 57.6313 26.374 57.7477 26.3158C57.779 26.3016 57.813 26.2942 57.8474 26.2942C57.8818 26.2942 57.9158 26.3016 57.9471 26.3158L57.9555 26.2826C57.8723 26.2493 57.8059 26.2493 57.7311 26.2826H57.7394ZM58.6369 26.7147C58.6536 26.7147 58.9029 26.9142 58.7616 27.1469L58.7865 27.1718C58.9527 26.8976 58.6619 26.6815 58.6619 26.6732L58.6369 26.7147ZM57.8723 26.748C57.8723 26.748 57.8308 26.8892 58.0386 26.9391C58.0386 26.9391 57.8474 26.9391 57.8308 26.8892C57.8225 26.8394 57.8308 26.7313 57.8723 26.748ZM58.4957 26.9142C58.4957 26.9308 58.479 26.9391 58.4707 26.9391C58.4653 26.9394 58.46 26.938 58.4555 26.935C58.451 26.932 58.4476 26.9276 58.4458 26.9225C58.4458 26.9059 58.4541 26.8976 58.4707 26.8976C58.479 26.8976 58.4957 26.9059 58.4957 26.9225V26.9142ZM58.5123 27.0139C58.5123 27.0222 58.5123 27.0305 58.4957 27.0305C58.4903 27.0308 58.4849 27.0294 58.4804 27.0264C58.4759 27.0234 58.4725 27.019 58.4707 27.0139C58.4707 27.0073 58.4734 27.001 58.478 26.9963C58.4827 26.9916 58.489 26.989 58.4957 26.989C58.504 26.989 58.5123 26.9973 58.5123 27.0139Z" fill="black"/>
<path d="M58.3627 26.989C58.3765 26.989 58.3876 26.9778 58.3876 26.964C58.3876 26.9502 58.3765 26.9391 58.3627 26.9391C58.3489 26.9391 58.3378 26.9502 58.3378 26.964C58.3378 26.9778 58.3489 26.989 58.3627 26.989Z" fill="black"/>
<path d="M58.4291 27.097C58.4291 27.1036 58.4265 27.11 58.4218 27.1147C58.4171 27.1193 58.4108 27.122 58.4042 27.122C58.3976 27.122 58.3912 27.1193 58.3866 27.1147C58.3819 27.11 58.3793 27.1036 58.3793 27.097C58.3793 27.0887 58.3876 27.0804 58.4042 27.0804L58.4291 27.097ZM57.8391 26.4903C57.8391 26.497 57.8364 26.5033 57.8317 26.508C57.8271 26.5126 57.8207 26.5153 57.8141 26.5153C57.8075 26.5153 57.8012 26.5126 57.7965 26.508C57.7918 26.5033 57.7892 26.497 57.7892 26.4903C57.7915 26.4869 57.7945 26.4841 57.7982 26.4822C57.8018 26.4802 57.8058 26.4792 57.81 26.4792C57.8141 26.4792 57.8181 26.4802 57.8218 26.4822C57.8254 26.4841 57.8285 26.4869 57.8307 26.4903H57.8391Z" fill="black"/>
<path d="M57.8307 26.6067C57.8445 26.6067 57.8557 26.5955 57.8557 26.5818C57.8557 26.568 57.8445 26.5568 57.8307 26.5568C57.8169 26.5568 57.8058 26.568 57.8058 26.5818C57.8058 26.5955 57.8169 26.6067 57.8307 26.6067Z" fill="black"/>
<path d="M57.7061 26.5651C57.7199 26.5651 57.731 26.554 57.731 26.5402C57.731 26.5264 57.7199 26.5153 57.7061 26.5153C57.6923 26.5153 57.6812 26.5264 57.6812 26.5402C57.6812 26.554 57.6923 26.5651 57.7061 26.5651Z" fill="black"/>
<path d="M57.7642 26.6732C57.7645 26.6786 57.7631 26.6839 57.7601 26.6884C57.7571 26.6929 57.7527 26.6963 57.7476 26.6981C57.741 26.6981 57.7346 26.6955 57.73 26.6908C57.7253 26.6861 57.7227 26.6798 57.7227 26.6732C57.7227 26.6666 57.7253 26.6602 57.73 26.6556C57.7346 26.6509 57.741 26.6482 57.7476 26.6482C57.7527 26.65 57.7571 26.6534 57.7601 26.6579C57.7631 26.6624 57.7645 26.6678 57.7642 26.6732ZM58.1631 25.8753C58.1631 25.8753 58.454 26.0582 58.1714 26.3989C58.1714 26.3989 58.3127 26.2909 58.321 26.1164C58.3377 25.9418 58.2213 25.8006 58.1548 25.8753H58.1631ZM59.2851 26.3657C59.1853 26.4155 59.0524 26.3241 58.9859 26.241C58.9194 26.1579 58.7781 26.133 58.6867 26.2909C58.6036 26.4405 58.4789 26.4987 58.4789 26.4987C58.4789 26.4987 58.6036 26.4322 58.7283 26.2909C58.8529 26.1579 58.9277 26.266 59.0524 26.3324C59.1687 26.3989 59.1937 26.4155 59.2768 26.374V26.3657H59.2851Z" fill="black"/>
<path d="M59.2602 26.3906C59.2337 26.4111 59.2008 26.4216 59.1673 26.42C59.1338 26.4185 59.1019 26.4051 59.0774 26.3823C58.9943 26.3158 58.9361 26.2327 58.8447 26.2825C58.745 26.3324 58.5704 26.4654 58.5704 26.4654C58.5704 26.4654 58.8613 26.2659 58.9195 26.3158C58.9694 26.3573 59.1023 26.4654 59.1771 26.4321L59.2602 26.3906Z" fill="black"/>
<path d="M59.0359 26.5069C58.9445 26.4404 58.853 26.59 58.7782 26.5734C58.6951 26.5568 58.637 26.4238 58.637 26.4238C58.637 26.4238 58.7034 26.5568 58.8032 26.5319C58.9112 26.4986 58.9777 26.4321 59.0442 26.482C59.1024 26.5319 59.0359 26.5069 59.0359 26.5069Z" fill="black"/>
<path d="M58.8945 26.5319C58.8708 26.5367 58.8463 26.5363 58.8227 26.5307C58.7991 26.5251 58.777 26.5144 58.758 26.4993C58.739 26.4843 58.7236 26.4653 58.7127 26.4436C58.7018 26.422 58.6958 26.3982 58.6951 26.374C58.6951 26.374 58.7532 26.5236 58.9111 26.4986L58.8945 26.5319Z" fill="black"/>
<path d="M58.8863 26.4155C58.8946 26.4571 58.8946 26.482 58.8447 26.482C58.7949 26.482 58.7616 26.4654 58.7616 26.4155C58.7616 26.374 58.878 26.3823 58.8863 26.4155ZM58.238 26.1662C58.236 26.1802 58.229 26.1929 58.2183 26.2021C58.2076 26.2112 58.194 26.2162 58.1799 26.2161C58.1466 26.2161 58.1383 26.1995 58.1383 26.1662C58.1383 26.133 58.1383 26.108 58.1799 26.108C58.2214 26.108 58.238 26.133 58.238 26.1662Z" fill="black"/>
<path d="M58.0302 25.9585C58.0302 25.9585 58.346 25.9585 58.1964 26.3491C58.1964 26.3491 58.3127 26.1579 58.2379 26.0166C58.1548 25.8837 58.0468 25.9169 58.0468 25.9169C58.0468 25.9169 58.0135 25.9418 58.0302 25.9585Z" fill="black"/>
<path d="M58.0303 26.1163C58.0303 26.1994 58.0801 26.2742 58.1799 26.3573L58.2048 26.3241C58.1134 26.2493 58.0635 26.1828 58.0635 26.1163C58.0635 26.0498 58.1134 26.0083 58.1134 26.0083L58.0885 25.9833C58.0885 25.9833 58.0303 26.0332 58.022 26.1163H58.0303Z" fill="black"/>
<path d="M58.0967 26.1828C58.105 26.2244 58.1465 26.2659 58.1964 26.2826L58.213 26.2493C58.1715 26.2327 58.1382 26.1995 58.1299 26.1662C58.1133 26.0997 58.1632 26.0249 58.1632 26.0249L58.1299 26C58.1299 26 58.0717 26.0997 58.0967 26.1828ZM58.5205 26.3989C58.5205 26.3989 58.5787 26.5236 58.4956 26.6566L58.4125 26.7895C58.4125 26.7895 58.5122 26.5984 58.4706 26.5236C58.4374 26.4405 58.5205 26.3989 58.5205 26.3989ZM59.7339 27.712C60.0497 27.7702 60.7727 28.3353 60.7727 28.3353L60.8143 28.2855C60.7893 28.2605 60.0746 27.7037 59.7422 27.6455L59.7256 27.712H59.7339ZM60.0165 28.5015C60.0331 28.7924 60.3489 28.9669 60.3489 28.9752L60.3904 28.9171C60.3904 28.9171 60.0996 28.7509 60.0829 28.5015H60.0165ZM59.2435 28.568C59.2435 28.8838 59.5427 29.2661 59.5594 29.2827L59.6092 29.2412C59.6092 29.2412 59.31 28.8589 59.31 28.568H59.2435ZM58.2379 28.6013C58.2878 28.7093 58.2878 28.7592 58.2712 28.7841C58.2546 28.8173 58.2213 28.8173 58.2213 28.8173L58.2296 28.8838C58.2546 28.8838 58.3044 28.8672 58.3294 28.8173C58.3626 28.7592 58.3543 28.6761 58.2961 28.568L58.2379 28.6013Z" fill="black"/>
<path d="M53.7 27.0375C53.7 27.0375 53.7125 27.25 53.875 27.375C53.875 27.375 53.8624 27.15 53.9124 27.05C53.9124 27.05 53.825 26.95 53.7 27.0375ZM54.025 27.1625C54.025 27.1625 54.0624 27.3625 54.1749 27.45L54.25 27.4375C54.25 27.4375 54.275 27.1875 54.3125 27.1625C54.35 27.1375 54.15 27.25 54.025 27.1625Z" fill="white" stroke="black" stroke-width="0.025" stroke-miterlimit="3"/>
<path d="M54.3124 27.1625L54.4374 27.3625L54.5874 27.275L54.5624 27.05C54.5624 27.05 54.4749 27.025 54.3124 27.1625ZM54.8999 27.2L54.7374 27.3375C54.7374 27.3375 54.6499 27.275 54.5874 27.275L54.6124 27.0625C54.6124 27.0625 54.7374 26.975 54.8999 27.2ZM53.7374 29.2C53.7374 29.2 53.7124 28.9 53.7374 28.8875C53.7374 28.8875 53.8624 28.925 53.9124 28.8875C53.9124 28.8875 53.9749 29.1125 53.9624 29.2125C53.9374 29.3125 53.8249 29.275 53.7374 29.2125V29.2ZM54.4874 28.9C54.4874 28.9 54.4749 28.65 54.5124 28.6125C54.5124 28.6125 54.7624 28.65 54.8124 28.5125L54.8999 28.7625C54.8999 28.7625 54.6374 28.725 54.4749 28.8875L54.4874 28.9Z" fill="white"/>
<path d="M54.5874 27.275L54.4374 27.3625L54.3124 27.1625C54.4749 27.025 54.5624 27.05 54.5624 27.05L54.5874 27.275ZM54.5874 27.275C54.6499 27.275 54.7374 27.3375 54.7374 27.3375L54.8999 27.2C54.7374 26.975 54.6124 27.0625 54.6124 27.0625L54.5874 27.275ZM53.7374 29.2C53.7374 29.2 53.7124 28.9 53.7374 28.8875C53.7374 28.8875 53.8624 28.925 53.9124 28.8875C53.9124 28.8875 53.9749 29.1125 53.9624 29.2125C53.9374 29.3125 53.8249 29.275 53.7374 29.2125V29.2ZM54.4874 28.9C54.4874 28.9 54.4749 28.65 54.5124 28.6125C54.5124 28.6125 54.7624 28.65 54.8124 28.5125L54.8999 28.7625C54.8999 28.7625 54.6374 28.725 54.4749 28.8875L54.4874 28.9Z" stroke="black" stroke-width="0.025" stroke-miterlimit="3"/>
<path d="M54.225 28.95C54.225 28.95 54.2625 28.6875 54.3125 28.675C54.3125 28.675 54.4375 28.7125 54.475 28.6625V28.9875C54.475 28.9875 54.475 28.85 54.225 28.95ZM53.9375 28.9875C53.9375 28.9875 54 28.75 54.0375 28.75C54.075 28.75 54.1625 28.8125 54.2125 28.775V28.95C54.2125 28.95 54.0125 28.9 53.975 29.1875L53.9375 28.9875Z" fill="white" stroke="black" stroke-width="0.025" stroke-miterlimit="3"/>
<path d="M57.7124 33.8C57.7124 33.8 58.3624 34.4125 58.1999 34.95C58.1999 34.95 58.6124 34.0375 58.1624 33.7625C57.7124 33.5125 57.6999 33.7 57.7124 33.8Z" fill="#00A651" stroke="black" stroke-width="0.0625" stroke-miterlimit="4.8"/>
<path d="M56.8749 34.3875C56.8749 34.3875 56.7124 34.6375 56.8999 34.8C56.8999 34.8 56.6874 35.1 56.8499 35.35C56.8499 35.35 56.7249 35.6125 56.7499 35.9C56.7499 35.9 56.6499 36.3375 56.8749 36.5375C56.8749 36.5375 57.1249 36.6625 57.2499 36.55C57.2499 36.55 57.4624 36.225 57.3249 35.8875C57.3249 35.8875 57.4749 35.6 57.2999 35.2375C57.2999 35.2375 57.3499 35.0375 57.2124 34.8C57.2124 34.8 57.2999 34.65 57.2249 34.525C57.2249 34.525 56.9124 34.1875 56.8749 34.4V34.3875Z" fill="#964B36" stroke="black" stroke-width="0.0625" stroke-miterlimit="4.8"/>
<path d="M57.0625 33.625C57.0625 33.625 56.2875 32.125 55.7375 32.0625C55.1875 32 55.1625 31.4625 55.1625 31.4625C55.1625 31.4625 55.225 31.7125 55.6625 31.7125C56.1 31.7125 56.9375 32.3375 57.0375 32.8C57.125 33.2625 57.225 33.2 57.225 33.2L57.0625 33.625Z" fill="#00A651" stroke="black" stroke-width="0.0625" stroke-miterlimit="4.8"/>
<path d="M57.0625 33.5126C57.0625 33.5126 57.35 31.625 58.5875 31.5875C59.825 31.5625 59.4125 31.6875 59.7125 31.4875C59.7125 31.4875 58.8875 31.9125 58.375 31.9875C57.85 32.0375 57.425 33.05 57.45 33.2375C57.45 33.425 57.1625 33.7875 57.025 33.6625C56.875 33.5375 57.0625 33.5126 57.0625 33.5126Z" fill="#00A651" stroke="black" stroke-width="0.0625" stroke-miterlimit="4.8"/>
<path d="M57.3499 34.225C57.3499 34.225 57.6374 33.475 58.1124 33.725C58.1124 33.725 57.7374 33 57.0624 33.625C57.0624 33.625 57.3624 34.0375 57.3499 34.225ZM56.4124 33.475C56.4124 33.475 56.8124 35.15 56.1874 35.6625C56.1874 35.6625 56.2124 34.8 55.8249 34.2875C55.4499 33.7625 56.1999 33.2 56.4124 33.475Z" fill="#00A651" stroke="black" stroke-width="0.0625" stroke-miterlimit="4.8"/>
<path d="M56.4624 33.7626C56.4624 33.7626 57.1999 34.4751 57.2374 34.7126C57.2874 34.9376 57.4624 34 57.1124 33.7375C56.7624 33.475 56.3999 33.425 56.3999 33.425L56.4624 33.7751V33.7626Z" fill="#00A651" stroke="black" stroke-width="0.0625" stroke-miterlimit="4.8"/>
<path d="M55.1 35.625C55.1 35.625 55.1625 35.9125 55.35 35.975C55.35 35.975 55.35 36.1875 55.525 36.25C55.525 36.25 55.4375 36.4375 55.575 36.55C55.575 36.55 55.55 36.925 55.675 36.9875C55.675 36.9875 56.0125 36.975 56.125 36.875C56.125 36.875 56.1875 36.6375 56 36.4C56 36.4 56.0375 36.175 55.85 36.05C55.85 36.05 55.9125 35.7375 55.675 35.625C55.675 35.625 55.6375 35.375 55.5 35.25C55.5 35.25 55.225 35.6375 55.1 35.625Z" fill="#964B36" stroke="black" stroke-width="0.0625" stroke-miterlimit="4.8"/>
<path d="M55.4624 35.25C55.4624 35.25 54.4999 34.9 53.9624 35.4C53.9624 35.4 54.7874 35.525 54.8874 35.6875C54.9874 35.85 55.4999 35.4125 55.4624 35.25Z" fill="#00A651" stroke="black" stroke-width="0.0625" stroke-miterlimit="4.8"/>
<path d="M55.1624 35.85L54.9874 35.725C54.8999 35.65 54.0874 35.4375 53.9749 36.225C53.9749 36.225 53.6749 35.4375 54.0999 35.35C54.5374 35.225 54.8749 35.475 55.1624 35.85ZM54.5374 34.25C54.5374 34.25 54.8249 34.9 54.9374 34.925C55.0499 34.9625 55.1249 34.85 55.1249 34.85C55.1249 34.85 54.7374 34.275 54.5249 34.25H54.5374ZM54.3124 33.2625C54.3124 33.2625 54.0624 32.4375 53.7624 32.6625C53.4624 32.875 53.5374 33.475 53.5374 33.475C53.5374 33.475 52.9499 32.85 53.2874 32.375C53.6374 31.8875 54.3124 32.425 54.3124 33.2625Z" fill="#00A651" stroke="black" stroke-width="0.0625" stroke-miterlimit="4.8"/>
<path d="M54.9874 34.975C54.9874 34.975 54.9874 35.1375 55.0999 35.175C55.1999 35.225 55.4124 35.3 55.4124 35.2125C55.4124 35.125 55.2499 34.75 55.1874 34.8C55.1249 34.85 55.0124 34.85 54.9874 34.975Z" fill="#964B36" stroke="black" stroke-width="0.0625" stroke-miterlimit="4.8"/>
<path d="M54.7999 34C54.7999 34 54.7624 33.2875 55.2374 33.0125C55.2374 33.0125 55.3249 33.0375 55.3749 32.8875C55.3749 32.8875 54.9999 33.8 55.1124 34.2625L55.0999 34.3125" fill="#00A651"/>
<path d="M54.7999 34C54.7999 34 54.7624 33.2875 55.2374 33.0125C55.2374 33.0125 55.3249 33.0375 55.3749 32.8875C55.3749 32.8875 54.9999 33.8 55.1124 34.2625L55.0999 34.3125" stroke="black" stroke-width="0.0625" stroke-miterlimit="4.8"/>
<path d="M54.8875 33.125C54.8875 33.125 55.7375 31.375 56.7625 31.9875C56.7625 31.9875 55.6874 32.2 55.2999 32.975L54.9124 33.55L54.8875 33.125Z" fill="#00A651" stroke="black" stroke-width="0.0625" stroke-miterlimit="4.8"/>
<path d="M54.4375 33.7625C54.4375 33.7625 54.1875 32.5875 54.025 32.4375C53.875 32.275 53.6125 32.1125 53.2875 32.375C53.2875 32.375 53.8375 31.8875 54.4125 32.3C55 32.7 54.875 33.35 54.875 33.35L54.8125 34.1625L54.425 33.8" fill="#00A651"/>
<path d="M54.4375 33.7625C54.4375 33.7625 54.1875 32.5875 54.025 32.4375C53.875 32.275 53.6125 32.1125 53.2875 32.375C53.2875 32.375 53.8375 31.8875 54.4125 32.3C55 32.7 54.875 33.35 54.875 33.35L54.8125 34.1625L54.425 33.8" stroke="black" stroke-width="0.0625" stroke-miterlimit="4.8"/>
<path d="M55.35 35.1626C55.35 35.1626 54.3125 33.2001 53.6375 34.6001C53.6375 34.6001 53.5125 34.9626 53.65 35.1001C53.65 35.1001 53.275 34.8126 53.45 34.1251C53.625 33.4376 54.7625 33.7501 55.1 34.3126C55.425 34.8751 55.5125 35.1626 55.475 35.1876C55.425 35.2251 55.35 35.1626 55.35 35.1626ZM58.2625 35.7251C58.2625 35.7251 59.0125 34.1751 59.45 34.8751C59.45 34.8751 59.575 35.2251 59.3875 35.3751C59.3875 35.3751 59.0875 35.0001 58.825 35.4501C58.55 35.8876 58.6625 35.8501 58.6625 35.8501C58.6625 35.8501 58.3875 35.9251 58.2625 35.7251Z" fill="#00A651" stroke="black" stroke-width="0.0625" stroke-miterlimit="4.8"/>
<path d="M59.3749 35.375C59.3749 35.375 59.7874 35.5875 59.6499 36.025C59.6499 36.025 60.1999 34.975 59.4499 34.875C59.4499 34.875 59.5874 35.2125 59.3874 35.375H59.3749ZM59.4374 34.3C59.4374 34.3 60.4249 34.5875 60.4499 35.0125C60.4499 35.0125 60.6249 34.1875 60.0624 33.9375C60.0624 33.9375 59.3874 34.0625 59.4374 34.3125V34.3Z" fill="#00A651" stroke="black" stroke-width="0.0625" stroke-miterlimit="4.8"/>
<path d="M59.8749 33.0001C60.2999 32.1751 60.8249 33.2626 60.8249 33.2626C60.8249 33.2626 61.0124 32.4001 60.4874 32.2501C59.9499 32.0876 59.6124 34.0876 59.6124 34.0876L58.9874 34.2126C58.9874 34.2126 59.1499 32.4876 60.0874 32.3376H60.2124" fill="#00A651"/>
<path d="M59.8749 33.0001C60.2999 32.1751 60.8249 33.2626 60.8249 33.2626C60.8249 33.2626 61.0124 32.4001 60.4874 32.2501C59.9499 32.0876 59.6124 34.0876 59.6124 34.0876L58.9874 34.2126C58.9874 34.2126 59.1499 32.4876 60.0874 32.3376H60.2124" stroke="black" stroke-width="0.0625" stroke-miterlimit="4.8"/>
<path d="M59.1249 33.5C59.1249 33.5 58.5249 32.275 58.1249 32.15C57.7249 32.025 58.3374 31.8375 58.5874 32.075C58.8374 32.3125 59.3124 32.6125 59.2624 33.2375L59.1249 33.5ZM58.4999 35.175C58.4999 35.175 58.6749 34.35 59.1499 34.1C59.6249 33.85 60.0624 33.9375 60.0624 33.9375C60.0624 33.9375 59.4999 34.0625 59.3999 34.35C59.3124 34.625 59.1499 34.65 59.1499 34.65L58.5124 35.175H58.4999Z" fill="#00A651" stroke="black" stroke-width="0.0625" stroke-miterlimit="4.8"/>
<path d="M58.2499 35.725C58.2499 35.725 57.9999 36.225 58.0499 36.3C58.0499 36.3 57.7749 36.7125 57.8874 36.925C57.8874 36.925 58.1624 37.1375 58.2874 37.05C58.2874 37.05 58.6124 36.5875 58.5249 36.3375C58.5249 36.3375 58.7499 36.0375 58.6624 35.85C58.6624 35.85 58.3374 35.8625 58.2624 35.725H58.2499Z" fill="#964B36" stroke="black" stroke-width="0.0625" stroke-miterlimit="4.8"/>
<path d="M56.8749 34.825C56.8999 34.8375 57.0624 34.9125 57.1624 34.875L57.2374 34.8125L57.1749 34.7875C57.1374 34.8625 56.9624 34.8 56.9124 34.775L56.8874 34.825H56.8749ZM56.8624 35.325L56.8374 35.3875C56.8499 35.3875 57.1749 35.45 57.3249 35.3125L57.2749 35.2625C57.1499 35.375 56.8624 35.3125 56.8499 35.3125L56.8624 35.325ZM56.7749 35.875L56.7374 35.925C56.7374 35.925 57.1124 36.1875 57.3499 35.9L57.2874 35.8625C57.0999 36.1 56.7874 35.8875 56.7749 35.8625V35.875ZM55.3374 35.95L55.3499 35.9875C55.3624 35.9875 55.6749 35.8625 55.6999 35.625H55.6624C55.6499 35.825 55.3499 35.95 55.3374 35.95ZM55.5124 36.2375V36.275C55.5374 36.275 55.8249 36.25 55.8749 36.05H55.8374C55.7874 36.2125 55.5249 36.2375 55.5124 36.2375ZM55.5749 36.5375V36.575C55.5874 36.575 55.9124 36.5875 56.0249 36.4125L55.9874 36.3875C55.8874 36.55 55.5749 36.5375 55.5749 36.5375ZM58.0374 36.325C58.0374 36.325 58.1749 36.475 58.3374 36.4625C58.3779 36.4618 58.4177 36.4524 58.4543 36.4352C58.4909 36.418 58.5235 36.3932 58.5499 36.3625L58.4999 36.3125C58.4499 36.375 58.3999 36.4 58.3374 36.4C58.2124 36.4 58.0874 36.275 58.0874 36.275L58.0374 36.325Z" fill="black"/>
<path d="M67.7499 37.475C67.7351 37.485 67.7224 37.4977 67.7124 37.5126L67.7624 37.475H67.7499ZM68.9124 37.1875C68.8999 37.1625 68.8874 37.175 68.8749 37.1625L68.8249 37.0625H68.7874L68.6999 36.8876C68.7048 36.8755 68.7048 36.8621 68.6999 36.85C68.7003 36.8334 68.7003 36.8167 68.6999 36.8C68.6999 36.8 68.6749 36.8001 68.6624 36.7751V36.5751L68.6499 36.5126C68.6243 36.4713 68.6113 36.4236 68.6124 36.375V36.25C68.6249 36.2 68.5999 36.175 68.5999 36.125L68.6124 36.0126V35.3376L68.5999 35.2126L68.5874 35.1625V34.9626V35.2875L68.5624 34.75L68.1374 34.55C68.1374 34.55 68.0999 35.325 68.1124 35.425C68.1124 35.5375 68.1624 36.2625 68.1374 36.35L68.0749 36.8876C68.0749 36.8876 67.8749 37.0375 67.7999 37.1875C67.7124 37.35 67.7374 37.4001 67.7124 37.4001L67.8999 37.375L67.7624 37.475C67.7768 37.4692 67.7925 37.4672 67.8078 37.4694C67.8232 37.4716 67.8377 37.4779 67.8499 37.4875L67.8749 37.5126L67.8999 37.4875C67.9374 37.4875 67.9624 37.5376 67.9874 37.5251L68.0374 37.5L68.0624 37.4501C68.0749 37.4376 68.0999 37.4501 68.1124 37.4501H68.1999C68.2374 37.4501 68.2749 37.3875 68.3124 37.3625C68.3374 37.3375 68.3624 37.3251 68.3999 37.3251C68.4374 37.3251 68.4749 37.3625 68.5249 37.3625C68.5499 37.3625 68.5624 37.3626 68.5874 37.3376L68.6374 37.2626L68.7374 37.25L68.7874 37.2626H68.8624L68.8999 37.2875L68.9249 37.2375L68.9124 37.1875Z" fill="#964B36"/>
<path d="M67.7624 37.475L67.7124 37.5126C67.7224 37.4977 67.7351 37.485 67.7499 37.475H67.7624ZM67.7624 37.475L67.8999 37.375L67.7124 37.4001C67.7374 37.4001 67.7124 37.35 67.7999 37.1875C67.8749 37.0375 68.0749 36.8876 68.0749 36.8876L68.1374 36.35C68.1624 36.2625 68.1124 35.5375 68.1124 35.425C68.0999 35.325 68.1374 34.55 68.1374 34.55L68.5624 34.75L68.5874 35.2875V34.9626V35.1625L68.5999 35.2126L68.6124 35.3376V36.0126L68.5999 36.125C68.5999 36.175 68.6249 36.2 68.6124 36.25V36.375C68.6113 36.4236 68.6243 36.4713 68.6499 36.5126L68.6624 36.5751V36.7751C68.6749 36.8001 68.6999 36.8 68.6999 36.8C68.7003 36.8167 68.7003 36.8334 68.6999 36.85C68.7048 36.8621 68.7048 36.8755 68.6999 36.8876L68.7874 37.0625H68.8249L68.8749 37.1625C68.8874 37.175 68.8999 37.1625 68.9124 37.1875L68.9249 37.2375L68.8999 37.2875L68.8624 37.2626H68.7874L68.7374 37.25L68.6374 37.2626L68.5874 37.3376C68.5624 37.3626 68.5499 37.3625 68.5249 37.3625C68.4749 37.3625 68.4374 37.3251 68.3999 37.3251C68.3624 37.3251 68.3374 37.3375 68.3124 37.3625C68.2749 37.3875 68.2374 37.4501 68.1999 37.4501H68.1124C68.0999 37.4501 68.0749 37.4376 68.0624 37.4501L68.0374 37.5L67.9874 37.5251C67.9624 37.5376 67.9374 37.4875 67.8999 37.4875L67.8749 37.5126L67.8499 37.4875C67.8377 37.4779 67.8232 37.4716 67.8078 37.4694C67.7925 37.4672 67.7768 37.4692 67.7624 37.475Z" stroke="black" stroke-width="0.0375" stroke-miterlimit="4.8"/>
<path d="M68.0624 37.4626H68.1374V37.4876C68.1412 37.4898 68.1456 37.4909 68.1499 37.4909C68.1543 37.4909 68.1586 37.4898 68.1624 37.4876L68.1999 37.5126H68.2374L68.2874 37.5251C68.3124 37.5376 68.3374 37.5251 68.3624 37.5126C68.3874 37.4876 68.3999 37.5126 68.4374 37.5376C68.4499 37.5501 68.4499 37.5501 68.4624 37.5376L68.4749 37.5251L68.5124 37.5126L68.5499 37.5001L68.5999 37.4751L68.6499 37.5001C68.6582 37.499 68.6666 37.499 68.6749 37.5001L68.7624 37.4376C68.7999 37.4126 68.8249 37.4376 68.8499 37.4376H68.8874C68.8999 37.4251 68.9124 37.4376 68.9374 37.4376C68.9374 37.4251 68.9374 37.4126 68.9624 37.4001L69.0499 37.4501C69.0624 37.4626 69.1374 37.4751 69.1249 37.4251C69.1249 37.3751 69.0749 37.4126 69.0624 37.3751V37.3001C69.0565 37.2794 69.0432 37.2616 69.0249 37.2501C68.9999 37.2501 68.9999 37.2626 68.9749 37.2501L68.9499 37.1751L68.9124 37.2001C68.8874 37.2001 68.8874 37.1876 68.8749 37.1626C68.8374 37.1251 68.8249 37.1876 68.7874 37.1751C68.7624 37.1751 68.7374 37.1126 68.7249 37.0876C68.7124 37.0751 68.6874 37.0251 68.6624 37.0376C68.6374 37.0501 68.6624 37.1001 68.6624 37.1251H68.5999C68.5749 37.1251 68.5749 37.1251 68.5624 37.1501C68.5374 37.2001 68.5249 37.2376 68.4749 37.2251C68.4624 37.2251 68.4374 37.2126 68.4249 37.2251L68.3624 37.2501C68.3459 37.2534 68.3289 37.2534 68.3124 37.2501L68.2624 37.2001C68.2624 37.1968 68.2611 37.1936 68.2588 37.1912C68.2564 37.1889 68.2533 37.1876 68.2499 37.1876C68.2466 37.1876 68.2434 37.1889 68.2411 37.1912C68.2388 37.1936 68.2374 37.1968 68.2374 37.2001C68.2334 37.1917 68.2292 37.1834 68.2249 37.1751C68.1999 37.1751 68.1999 37.1751 68.1874 37.2126L68.1749 37.2751L68.1374 37.3251L68.0874 37.3376C68.0624 37.3376 68.0374 37.3751 68.0374 37.3376C68.0124 37.2876 68.0749 37.2001 68.0124 37.2126C67.9999 37.2126 67.9874 37.2126 67.9749 37.2376V37.3251C67.9624 37.3626 67.8874 37.4251 67.8999 37.4501C67.8999 37.4876 67.9499 37.4501 67.9499 37.4501L67.9749 37.5001C67.9999 37.5376 68.0624 37.4501 68.0624 37.5001M67.7999 37.1626V37.1376L67.7499 37.1251C67.7249 37.1251 67.6999 37.1626 67.6874 37.1751C67.6624 37.2251 67.6624 37.3001 67.6124 37.3001H67.5499V37.4251C67.5499 37.4251 67.5249 37.4251 67.5249 37.4501C67.5124 37.5001 67.5499 37.4751 67.5749 37.4751H67.6999L67.7624 37.4626C67.7874 37.4626 67.8124 37.4626 67.8249 37.4376C67.8349 37.4218 67.8433 37.405 67.8499 37.3876V37.3376C67.8499 37.3126 67.8874 37.3251 67.8874 37.2876C67.8999 37.2001 67.8124 37.2626 67.8249 37.1751" fill="#964B36"/>
<path d="M68.0624 37.4626H68.1374V37.4876C68.1412 37.4898 68.1456 37.4909 68.1499 37.4909C68.1543 37.4909 68.1586 37.4898 68.1624 37.4876L68.1999 37.5126H68.2374L68.2874 37.5251C68.3124 37.5376 68.3374 37.5251 68.3624 37.5126C68.3874 37.4876 68.3999 37.5126 68.4374 37.5376C68.4499 37.5501 68.4499 37.5501 68.4624 37.5376L68.4749 37.5251L68.5124 37.5126L68.5499 37.5001L68.5999 37.4751L68.6499 37.5001C68.6582 37.499 68.6666 37.499 68.6749 37.5001L68.7624 37.4376C68.7999 37.4126 68.8249 37.4376 68.8499 37.4376H68.8874C68.8999 37.4251 68.9124 37.4376 68.9374 37.4376C68.9374 37.4251 68.9374 37.4126 68.9624 37.4001L69.0499 37.4501C69.0624 37.4626 69.1374 37.4751 69.1249 37.4251C69.1249 37.3751 69.0749 37.4126 69.0624 37.3751V37.3001C69.0565 37.2794 69.0432 37.2616 69.0249 37.2501C68.9999 37.2501 68.9999 37.2626 68.9749 37.2501L68.9499 37.1751L68.9124 37.2001C68.8874 37.2001 68.8874 37.1876 68.8749 37.1626C68.8374 37.1251 68.8249 37.1876 68.7874 37.1751C68.7624 37.1751 68.7374 37.1126 68.7249 37.0876C68.7124 37.0751 68.6874 37.0251 68.6624 37.0376C68.6374 37.0501 68.6624 37.1001 68.6624 37.1251H68.5999C68.5749 37.1251 68.5749 37.1251 68.5624 37.1501C68.5374 37.2001 68.5249 37.2376 68.4749 37.2251C68.4624 37.2251 68.4374 37.2126 68.4249 37.2251L68.3624 37.2501C68.3459 37.2534 68.3289 37.2534 68.3124 37.2501L68.2624 37.2001C68.2624 37.1968 68.2611 37.1936 68.2588 37.1912C68.2564 37.1889 68.2533 37.1876 68.2499 37.1876C68.2466 37.1876 68.2434 37.1889 68.2411 37.1912C68.2388 37.1936 68.2374 37.1968 68.2374 37.2001C68.2334 37.1917 68.2292 37.1834 68.2249 37.1751C68.1999 37.1751 68.1999 37.1751 68.1874 37.2126L68.1749 37.2751L68.1374 37.3251L68.0874 37.3376C68.0624 37.3376 68.0374 37.3751 68.0374 37.3376C68.0124 37.2876 68.0749 37.2001 68.0124 37.2126C67.9999 37.2126 67.9874 37.2126 67.9749 37.2376V37.3251C67.9624 37.3626 67.8874 37.4251 67.8999 37.4501C67.8999 37.4876 67.9499 37.4501 67.9499 37.4501L67.9749 37.5001C67.9999 37.5376 68.0624 37.4501 68.0624 37.5001M67.7999 37.1626V37.1376L67.7499 37.1251C67.7249 37.1251 67.6999 37.1626 67.6874 37.1751C67.6624 37.2251 67.6624 37.3001 67.6124 37.3001H67.5499V37.4251C67.5499 37.4251 67.5249 37.4251 67.5249 37.4501C67.5124 37.5001 67.5499 37.4751 67.5749 37.4751H67.6999L67.7624 37.4626C67.7874 37.4626 67.8124 37.4626 67.8249 37.4376C67.8349 37.4218 67.8433 37.405 67.8499 37.3876V37.3376C67.8499 37.3126 67.8874 37.3251 67.8874 37.2876C67.8999 37.2001 67.8124 37.2626 67.8249 37.1751" stroke="black" stroke-width="0.0375" stroke-miterlimit="4.8"/>
<path d="M68.85 34.7375C68.85 34.85 68.775 34.9375 68.675 34.9375C68.5875 34.9375 68.5 34.85 68.5 34.7375C68.5 34.625 68.5875 34.5375 68.675 34.5375C68.775 34.5375 68.85 34.625 68.85 34.7375ZM68.2875 34.4875C68.2875 34.6 68.2125 34.6875 68.1125 34.6875C68.0125 34.6875 67.9375 34.6 67.9375 34.4875C67.9375 34.3625 68.025 34.2875 68.1125 34.2875C68.2 34.2875 68.2875 34.375 68.2875 34.4875Z" fill="black" stroke="black" stroke-width="0.0625" stroke-miterlimit="4.8"/>
<path d="M68.5875 34.5625C68.5875 34.6875 68.5125 34.7626 68.4125 34.7626C68.3125 34.7626 68.2375 34.675 68.2375 34.5625C68.2375 34.45 68.3125 34.3625 68.4125 34.3625C68.5125 34.3625 68.5875 34.45 68.5875 34.5625Z" fill="black" stroke="black" stroke-width="0.0625" stroke-miterlimit="4.8"/>
<path d="M68.3 34.75C68.3 34.8625 68.225 34.9501 68.125 34.9501C68.025 34.9501 67.95 34.8625 67.95 34.75C67.95 34.6375 68.025 34.55 68.125 34.55C68.225 34.55 68.3 34.6375 68.3 34.75Z" fill="black" stroke="black" stroke-width="0.0625" stroke-miterlimit="4.8"/>
<path d="M68.5625 34.9125C68.5625 35.0125 68.4875 35.1125 68.3875 35.1125C68.3 35.1125 68.2125 35.025 68.2125 34.9125C68.2125 34.7875 68.3 34.7 68.3875 34.7C68.4875 34.7 68.5625 34.7875 68.5625 34.9V34.9125Z" fill="black" stroke="black" stroke-width="0.0625" stroke-miterlimit="4.8"/>
<path d="M68.65 32.6875C68.65 32.6875 70.3875 30.2626 72.25 32.7751C72.25 32.7751 72.2625 33.025 72.0875 33.3L72.05 33.0876L71.925 33.125L71.9 33L71.7 32.9875L71.7625 32.7126L71.55 32.8876L71.575 32.7001L71.325 32.9501L71.3625 32.4125L71.0875 32.875L71.125 32.5625L71.025 32.7001L70.975 32.5126L70.8875 32.7001L70.7625 32.6125V32.7375L70.5375 32.55L70.4625 32.8L70.35 32.5251L70.325 32.7126L70.2125 32.5L70.2 32.7375L69.8375 32.5751L69.9125 32.8L69.75 32.675L69.775 32.8L69.5375 32.75L69.5625 32.8876L69.3125 32.8376L69.35 32.9626L69.0125 32.925L69.1375 33.05L69.1 33.125C69.1 33.125 70.975 32.5 71.1 34.85L70.7625 35.0126L70.8625 34.8251L70.7625 34.7626L70.475 34.55L70.5625 34.25L70.4625 34.2875L70.45 34.1125L70.4 34.1376L70.2875 33.975L70.2625 34.0375L70.1875 33.8251L70.1 33.975L70.0625 33.625L69.9375 33.85L69.9125 33.725L69.875 33.8L69.7125 33.6125L69.6625 33.7375L69.6 33.6376L69.5625 33.7626L69.3875 33.5876V33.7126L69.2625 33.625L69.225 33.6875L68.9625 33.55L68.95 33.675L68.8 33.55L68.7625 33.675C68.7625 33.675 70.4625 34.65 69.9375 36.225L69.8375 36.425L69.8125 35.9001L69.65 36.175L69.7625 35.5625L69.65 35.6875L69.6375 35.4375L69.5 35.6875L69.45 35.4125L69.3875 35.4875L69.2875 35.0876L69.2125 35.25L69.0875 34.8L68.9875 34.9875L68.925 34.6L68.8625 34.8376L68.675 34.4875L68.65 34.625L68.5375 34.35L68.475 34.4375C68.475 34.4375 68.1625 34.425 68.0625 34.35C67.975 34.2625 67.7125 34.8125 67.7125 34.8125L67.7375 34.4875L67.625 34.7126V34.4875L67.425 35.1501L67.375 34.675L67.275 35.0876L67.225 34.9626L67.1875 35.125L67.125 35.0625L67.075 35.25L66.975 35.175V35.425L66.875 35.3L66.8 35.675L66.75 35.5251V35.6875L66.675 35.6L66.6 35.975L66.475 35.8125V36.0876L66.5125 36.2875L66.3875 36.225L66.4375 36.55C66.4375 36.55 65.95 35.6501 66.5375 34.7751C67.1125 33.9001 67.9 33.6501 67.9 33.6501L67.8125 33.5751V33.5L67.3375 33.7375V33.6L67.2125 33.7001L67.1875 33.55L67.1125 33.6875L67.1 33.625L66.975 33.8L66.925 33.55L66.85 33.85L66.775 33.6376L66.6125 34.0751V33.75L66.4875 34.1L66.4375 33.725L66.35 34.1501V33.7751L66.2 34.1501L66.1125 33.7751L66.05 34.1501L65.95 33.8625L65.8625 34.2875L65.7125 33.9125L65.6375 34.475L65.55 34.25L65.525 34.6625L65.425 34.4125L65.525 34.9375L65.4 34.7375L65.4375 35.0625L65.2375 34.7001V35.125L65.1375 34.9875L65.0875 35.1501C65.0875 35.1501 65.05 33.5251 66.1625 33.2001C67.275 32.8876 67.9875 33.3 67.9875 33.3L67.5625 32.9501L67.6125 32.8376H67.4625L67.525 32.7126L67.1875 32.725L67.2875 32.6L67.0375 32.6376V32.5625L66.875 32.6875L66.9375 32.5375L66.725 32.6875L66.7125 32.475L66.5875 32.6501L66.5375 32.4626L66.0375 32.9626L66.1625 32.4501L66.075 32.5625L66.0625 32.4375L65.925 32.6625L65.8875 32.5126L65.825 32.7001L65.775 32.475L65.675 32.7001L65.55 32.5L65.5125 32.7626L65.4375 32.625L65.3375 32.8251L65.2125 32.7001V32.8251L64.9625 32.7126L65.0125 32.9001L64.825 32.75L64.775 33L64.675 32.875L64.5875 33.1875L64.5125 32.8876L64.4375 33.125C64.4375 33.125 65.4125 30.6 67.8875 32.25C67.8875 32.25 68.1625 32.5126 68.225 32.7001C68.2875 32.8876 68.2375 32.725 68.2375 32.725L68.1875 30.9875L68.2875 31.7375L68.35 31.4875L68.3375 31.8625L68.5875 31.3251C68.5875 31.3251 68.2875 32.225 68.4 32.5625C68.4 32.5625 68.5125 31.5126 68.8875 31.3876L68.5375 32.1376L68.65 32.125L68.575 32.2751H68.6625L68.55 32.5251L68.4875 32.6501L68.55 32.7751L68.65 32.6875Z" fill="#00A651" stroke="black" stroke-width="0.0625" stroke-miterlimit="4.8"/>
<path d="M68.3874 33.7L68.4374 33.75C68.4374 33.75 68.5999 33.575 68.8624 33.8L68.8999 33.75C68.5874 33.4875 68.3999 33.7 68.3999 33.7H68.3874ZM68.3124 32.85V32.9125L68.4249 32.8625L68.3374 33.0125L68.5249 32.95L68.2999 33.2375L68.3499 33.275L68.7124 32.8125L68.4874 32.8875L68.5874 32.725L68.3874 32.8L68.4249 32.5625H68.3624L68.3124 32.85Z" fill="black"/>
<path d="M67.9875 32.875L68.0625 33.0375L67.9375 32.9875L68.3 33.6375L68.35 33.575L68.275 33.7625L68.3375 33.7875L68.4875 33.3875L68.4375 33.35L68.3125 33.5125L68.0875 33.125L68.1875 33.1625L68.0875 32.95L68.225 33.025V32.7875H68.1625V32.9125L67.9375 32.775L67.9875 32.875ZM67.75 33.675L67.775 33.7375C67.875 33.7 67.9625 33.6875 68.025 33.7125C68.0875 33.75 68.1125 33.825 68.1125 33.8375L68.175 33.8125C68.175 33.8125 68.15 33.7 68.05 33.6625C67.975 33.625 67.875 33.625 67.75 33.675ZM68.0375 34.35L67.975 34H68.05L68.1 34.3375L68.0375 34.35ZM68.5125 34.3L68.425 34.025L68.4875 34.0125L68.575 34.2625L68.5125 34.3ZM68.6875 34.4875L68.625 34.225L68.6875 34.2125L68.7625 34.475L68.6875 34.4875Z" fill="black"/>
<path d="M55.3249 42.525C55.3249 42.525 55.0249 42.4 54.8874 42.5C54.7624 42.5875 54.7749 42.7375 54.6624 42.725C54.6624 42.725 55.1124 42.825 55.1999 42.7125L55.3249 42.5625M55.3749 42.65C55.3749 42.65 55.1749 42.9 55.2499 43.0625C55.3124 43.2125 55.4624 43.225 55.4249 43.3375C55.4249 43.3375 55.6124 42.925 55.5249 42.8C55.4374 42.675 55.3999 42.6625 55.3999 42.6625M55.0499 41.9375C55.0499 41.9375 54.7374 42.0375 54.6999 42.1875C54.6749 42.3625 54.7749 42.45 54.6874 42.525C54.6874 42.525 55.0874 42.3 55.0749 42.15V41.9625M55.2249 42.05C55.2249 42.05 55.3749 41.7625 55.2874 41.625C55.1874 41.475 55.0374 41.5 55.0624 41.375C55.0624 41.375 54.9374 41.8125 55.0624 41.925L55.1999 42.05M54.9249 41.9375C54.9249 41.9375 54.9249 41.6125 54.7999 41.5375C54.6499 41.45 54.5249 41.525 54.4874 41.4125C54.4874 41.4125 54.5749 41.8625 54.7124 41.9125L54.8999 41.95M55.4499 42.475C55.4499 42.475 55.7874 42.35 55.8249 42.725C55.8499 43.1 55.7999 42.975 55.7999 42.975C55.7999 42.975 55.6249 42.575 55.4249 42.5125L55.4499 42.475Z" fill="#00A651"/>
<path d="M55.3249 42.525C55.3249 42.525 55.0249 42.4 54.8874 42.5C54.7624 42.5875 54.7749 42.7375 54.6624 42.725C54.6624 42.725 55.1124 42.825 55.1999 42.7125L55.3249 42.5625M55.3749 42.65C55.3749 42.65 55.1749 42.9 55.2499 43.0625C55.3124 43.2125 55.4624 43.225 55.4249 43.3375C55.4249 43.3375 55.6124 42.925 55.5249 42.8C55.4374 42.675 55.3999 42.6625 55.3999 42.6625M55.0499 41.9375C55.0499 41.9375 54.7374 42.0375 54.6999 42.1875C54.6749 42.3625 54.7749 42.45 54.6874 42.525C54.6874 42.525 55.0874 42.3 55.0749 42.15V41.9625M55.2249 42.05C55.2249 42.05 55.3749 41.7625 55.2874 41.625C55.1874 41.475 55.0374 41.5 55.0624 41.375C55.0624 41.375 54.9374 41.8125 55.0624 41.925L55.1999 42.05M54.9249 41.9375C54.9249 41.9375 54.9249 41.6125 54.7999 41.5375C54.6499 41.45 54.5249 41.525 54.4874 41.4125C54.4874 41.4125 54.5749 41.8625 54.7124 41.9125L54.8999 41.95M55.4499 42.475C55.4499 42.475 55.7874 42.35 55.8249 42.725C55.8499 43.1 55.7999 42.975 55.7999 42.975C55.7999 42.975 55.6249 42.575 55.4249 42.5125L55.4499 42.475Z" stroke="black" stroke-width="0.0625" stroke-miterlimit="4.8"/>
<path d="M55.3749 42.6625L55.3999 42.9375H55.4499L55.4124 42.6625L55.5374 42.05H55.4874L55.3624 42.6625H55.3749Z" fill="black"/>
<path d="M55.0624 42.575L55.0499 42.6125C55.2124 42.675 55.4249 42.4875 55.4374 42.4875L55.4124 42.45C55.4124 42.45 55.1999 42.6125 55.0624 42.575ZM55.4874 42.2125L54.7374 41.8375L54.7624 41.775L55.5124 42.15L55.4874 42.2125Z" fill="black"/>
<path d="M54.9375 42.125L54.8875 42.0751L55.0374 41.925L55.0875 41.975L54.9375 42.125ZM55.2 42.05L55.0374 41.7001L55.0999 41.675L55.2625 42.0251L55.2 42.05ZM55.4249 42.475V42.55C55.6374 42.5375 55.6749 42.675 55.6749 42.675L55.75 42.6501C55.75 42.6126 55.6624 42.4625 55.4249 42.475Z" fill="black"/>
<path d="M58.9 42.625C59.15 42.5 59.2 42 59.2 42C59.1375 42.175 58.6749 42.3625 58.6749 42.3625C59.0124 42.15 59.4249 41.1875 59.4249 41.1875C59.3249 41.525 58.4249 41.8125 57.8499 42.1375C57.2749 42.4625 57.575 43.3875 57.575 43.3875C57.4125 43.275 57.0999 42.7875 57.0374 42.35C56.9749 41.9125 56.8124 41.7375 56.4124 41.6875C56.0249 41.6375 55.7874 42.0875 55.7874 42.0875L55.2 42.3875L55.7999 42.4125C55.7999 42.4125 56.2249 42.55 56.2249 42.8875C56.2249 43.2125 55.8499 44.55 56.4749 45.3C56.8874 45.8125 58.4749 46.1125 58.4749 46.1125" fill="white"/>
<path d="M58.9 42.625C59.15 42.5 59.2 42 59.2 42C59.1375 42.175 58.6749 42.3625 58.6749 42.3625C59.0124 42.15 59.4249 41.1875 59.4249 41.1875C59.3249 41.525 58.4249 41.8125 57.8499 42.1375C57.2749 42.4625 57.575 43.3875 57.575 43.3875C57.4125 43.275 57.0999 42.7875 57.0374 42.35C56.9749 41.9125 56.8124 41.7375 56.4124 41.6875C56.0249 41.6375 55.7874 42.0875 55.7874 42.0875L55.2 42.3875L55.7999 42.4125C55.7999 42.4125 56.2249 42.55 56.2249 42.8875C56.2249 43.2125 55.8499 44.55 56.4749 45.3C56.8874 45.8125 58.4749 46.1125 58.4749 46.1125" stroke="black" stroke-width="0.0875" stroke-miterlimit="4.8"/>
<path d="M57.7374 43.6625C57.7374 43.6625 57.8624 43.0625 58.2499 43.0875C58.6374 43.1125 58.7499 42.6375 58.9874 42.575C59.2249 42.5 60.4249 42.175 60.5499 41.6C60.5499 41.6 60.4374 42.55 59.3374 43.025C59.3374 43.025 60.2249 42.7375 60.3374 42.5375C60.3374 42.5375 59.9374 43.3875 58.9749 43.525C58.9749 43.525 59.8749 43.45 59.9999 43.2125C59.9999 43.2125 59.5999 43.7375 58.9374 43.8125C58.9374 43.8125 59.5624 44.0625 59.7124 43.85C59.7124 43.85 59.3749 44.25 58.9624 44.275L59.0874 44.3C59.0874 44.3 58.6874 44.775 58.2499 44.4625C57.8124 44.15 57.7999 44.5375 57.7999 44.5375" fill="white"/>
<path d="M57.7374 43.6625C57.7374 43.6625 57.8624 43.0625 58.2499 43.0875C58.6374 43.1125 58.7499 42.6375 58.9874 42.575C59.2249 42.5 60.4249 42.175 60.5499 41.6C60.5499 41.6 60.4374 42.55 59.3374 43.025C59.3374 43.025 60.2249 42.7375 60.3374 42.5375C60.3374 42.5375 59.9374 43.3875 58.9749 43.525C58.9749 43.525 59.8749 43.45 59.9999 43.2125C59.9999 43.2125 59.5999 43.7375 58.9374 43.8125C58.9374 43.8125 59.5624 44.0625 59.7124 43.85C59.7124 43.85 59.3749 44.25 58.9624 44.275L59.0874 44.3C59.0874 44.3 58.6874 44.775 58.2499 44.4625C57.8124 44.15 57.7999 44.5375 57.7999 44.5375" stroke="black" stroke-width="0.0875" stroke-miterlimit="4.8"/>
<path d="M58.625 44.5625C58.625 44.5625 59.1375 45.4125 59.1875 45.8625C59.1875 45.8625 60.1625 46.925 60.525 46.9875C60.525 46.9875 60.35 47.0625 60.025 46.8C60.025 46.8 60.3 47.075 60.35 47.0875C60.4 47.0875 60.1375 47.0625 60.1 46.9875C60.1471 47.0596 60.2063 47.123 60.275 47.175L60.2125 47.15C60.2125 47.15 60.0875 47.1375 60.0125 47.0875C59.95 47.0375 60 47.2125 60 47.2125C60 47.2125 59.85 47.175 59.8 47.125C59.75 47.075 59.8125 47.2375 59.8125 47.2375L59.6875 47.2L59.5875 47.2625C59.5875 47.2625 59.5875 47.325 59.525 47.2625C59.4625 47.225 59.35 47.2625 59.35 47.2625C59.35 47.2625 59.275 47.3375 59.225 47.2875C59.1875 47.2375 59.0375 47.4875 59.0375 47.4875L58.4125 45.95" fill="white"/>
<path d="M58.625 44.5625C58.625 44.5625 59.1375 45.4125 59.1875 45.8625C59.1875 45.8625 60.1625 46.925 60.525 46.9875C60.525 46.9875 60.35 47.0625 60.025 46.8C60.025 46.8 60.3 47.075 60.35 47.0875C60.4 47.0875 60.1375 47.0625 60.1 46.9875C60.1471 47.0596 60.2063 47.123 60.275 47.175L60.2125 47.15C60.2125 47.15 60.0875 47.1375 60.0125 47.0875C59.95 47.0375 60 47.2125 60 47.2125C60 47.2125 59.85 47.175 59.8 47.125C59.75 47.075 59.8125 47.2375 59.8125 47.2375L59.6875 47.2L59.5875 47.2625C59.5875 47.2625 59.5875 47.325 59.525 47.2625C59.4625 47.225 59.35 47.2625 59.35 47.2625C59.35 47.2625 59.275 47.3375 59.225 47.2875C59.1875 47.2375 59.0375 47.4875 59.0375 47.4875L58.4125 45.95" stroke="black" stroke-width="0.0875" stroke-miterlimit="4.8"/>
<path d="M59.2375 47.3375L58.4375 45.8125L58.5125 45.7625L59.3125 47.3L59.2375 47.3375ZM59.9375 47.2375L58.5625 45.7L58.6375 45.6375L60.0125 47.175L59.9375 47.2375ZM60.25 47.1125L58.6875 45.625L58.75 45.5625L60.3125 47.025L60.25 47.1125Z" fill="black"/>
<path d="M56.3182 42.1727C56.3182 42.1727 56.2184 41.9899 56.127 42.0647C56.0439 42.1312 55.9941 42.1478 55.9774 42.1395C55.9774 42.1395 56.0605 42.1395 56.1187 42.0979C56.1686 42.048 56.2517 42.073 56.3182 42.181V42.1727ZM55.7697 42.0896L55.8278 42.2059L55.7614 42.3971L55.8112 42.4137L55.8694 42.2059L55.8112 42.073L55.7697 42.0896Z" fill="black"/>
<path d="M56.3016 42.1478C56.3016 42.1478 56.2185 42.2309 56.1188 42.2143L56.0107 42.1893H56.1603C56.2185 42.1893 56.2933 42.1644 56.3016 42.1478Z" fill="black"/>
<path d="M56.2766 42.1644C56.2766 42.1644 56.1768 42.0646 56.1104 42.0979C56.1104 42.0979 56.2267 42.0563 56.2932 42.1561L56.2766 42.1644Z" fill="black"/>
<path d="M56.26 42.1478C56.26 42.1478 56.152 42.2226 56.0357 42.1478L56.0273 42.1312H56.044C56.044 42.1312 56.1852 42.1893 56.26 42.1478Z" fill="black"/>
<path d="M56.1686 42.1644C56.187 42.1644 56.2019 42.1495 56.2019 42.1311C56.2019 42.1128 56.187 42.0979 56.1686 42.0979C56.1503 42.0979 56.1354 42.1128 56.1354 42.1311C56.1354 42.1495 56.1503 42.1644 56.1686 42.1644Z" fill="black"/>
<path d="M56.25 44.95C56.25 44.95 56.1625 45.1 56.2125 45.2C56.25 45.2875 56.4625 45.325 56.475 45.45C56.5 45.575 56.575 45.575 56.6625 45.575L56.775 45.5375C56.775 45.5375 56.3875 45.3375 56.275 45L56.25 44.95Z" fill="black"/>
<path d="M68.675 41.85C68.675 41.85 69.375 40.925 70 41.1625C70.625 41.4125 71.0125 41.5375 71.0125 41.5375C71.0125 41.5375 71.025 42.15 70.7 42.15C70.375 42.15 70.05 41.525 69.75 41.7125C69.5231 41.84 69.3302 42.02 69.1875 42.2375C69.175 42.325 68.4 42.3375 68.675 41.85Z" fill="#964B36" stroke="black" stroke-width="0.0375" stroke-miterlimit="4.8"/>
<path d="M66.025 46.3C66.025 46.3 65.825 46.5 65.9125 46.55C66 46.6 66.175 46.55 66.175 46.475C66.175 46.4 66.05 46.275 66.025 46.3Z" fill="#964B36" stroke="black" stroke-width="0.0625" stroke-miterlimit="4.8"/>
<path d="M65.875 46.5C65.875 46.5 65.5 46.2875 65.225 46.775C64.9375 47.25 64.7125 48.0375 64.55 48.15C64.3875 48.25 66.15 47.375 66.175 47C66.175 47 66.2875 46.525 66.1 46.5375C65.9125 46.5375 65.9 46.5625 65.8625 46.4875L65.875 46.5Z" fill="#964B36" stroke="black" stroke-width="0.0625" stroke-miterlimit="4.8"/>
<path d="M65.9125 46.55C65.9125 46.55 65.5375 46.6375 65.4625 47.1625C65.3875 47.6875 64.875 47.95 64.8375 47.975M71.0125 41.525C71.0125 41.525 70.4625 41.725 70.55 42.1125Z" fill="#964B36"/>
<path d="M65.9125 46.55C65.9125 46.55 65.5375 46.6375 65.4625 47.1625C65.3875 47.6875 64.875 47.95 64.8375 47.975M71.0125 41.525C71.0125 41.525 70.4625 41.725 70.55 42.1125" stroke="black" stroke-width="0.0375" stroke-miterlimit="4.8"/>
<path d="M66.7125 42.6625C66.7125 42.6625 66.7375 41.3375 67.825 41.3875C68.025 41.4125 67.925 41.6501 67.925 41.6501C67.925 41.6501 68.175 41.4875 68.275 41.75C68.275 41.75 68.6125 41.6 68.65 41.9375C68.65 41.9375 69.025 41.8875 68.975 42.1875C68.975 42.1875 69.225 42.1251 69.225 42.3376C69.225 42.3376 69.5125 42.2251 69.475 42.5251C69.475 42.5251 69.8 42.3125 69.7625 42.7C69.7625 42.7 70.0875 42.4625 70.2 42.85C70.325 43.25 69.875 44.075 69.4375 44.2875" fill="#FFF200"/>
<path d="M66.7125 42.6625C66.7125 42.6625 66.7375 41.3375 67.825 41.3875C68.025 41.4125 67.925 41.6501 67.925 41.6501C67.925 41.6501 68.175 41.4875 68.275 41.75C68.275 41.75 68.6125 41.6 68.65 41.9375C68.65 41.9375 69.025 41.8875 68.975 42.1875C68.975 42.1875 69.225 42.1251 69.225 42.3376C69.225 42.3376 69.5125 42.2251 69.475 42.5251C69.475 42.5251 69.8 42.3125 69.7625 42.7C69.7625 42.7 70.0875 42.4625 70.2 42.85C70.325 43.25 69.875 44.075 69.4375 44.2875" stroke="black" stroke-width="0.0375" stroke-miterlimit="4.8"/>
<path d="M69.7375 42.75C69.7375 42.75 69.875 43.775 69.3 44.1625L69.3125 44.1875C69.925 43.8125 69.775 42.75 69.775 42.7375H69.7375V42.75ZM69.025 43.875L69.05 43.9C69.425 43.5375 69.5125 42.575 69.5125 42.525H69.475C69.475 42.525 69.3875 43.525 69.025 43.875ZM68.6875 43.6375H68.725C68.8013 43.1765 68.9761 42.7373 69.2375 42.35L69.2125 42.3375C69.2125 42.3375 68.7375 43.025 68.6875 43.6375ZM68.4125 43.4625H68.45C68.5125 42.75 69 42.2125 69 42.2L68.975 42.175C68.975 42.175 68.475 42.7375 68.4125 43.4625ZM68.0375 43.2125H68.075C68.1125 42.375 68.675 41.9625 68.675 41.9625L68.65 41.925C68.65 41.925 68.075 42.35 68.025 43.225L68.0375 43.2125ZM67.6875 43.0125H67.725C67.7 42.2375 68.2875 41.7625 68.3 41.7625L68.275 41.7375C68.275 41.7375 67.65 42.2125 67.6875 43.0125ZM67.0625 42.725H67.1C67.1291 42.4879 67.2242 42.2638 67.3745 42.0782C67.5248 41.8925 67.7242 41.7528 67.95 41.675V41.6375C67.7143 41.7162 67.5058 41.8601 67.3487 42.0527C67.1915 42.2452 67.0923 42.4783 67.0625 42.725Z" fill="black"/>
<path d="M66.075 44.275C66.075 44.275 65.8875 43.0375 66.625 42.65C66.625 42.65 66.7625 42.625 66.8375 42.8C66.8375 42.8 67.225 42.6375 67.2375 42.9625C67.2375 42.9625 67.4375 42.8125 67.4875 43.025C67.4875 43.025 67.9 42.9375 67.825 43.25C67.825 43.25 68.175 43.15 68.1375 43.45C68.1375 43.45 68.4875 43.325 68.4375 43.575C68.4375 43.575 68.8125 43.5 68.7125 43.8C68.7125 43.8 69.175 43.75 69.0375 44.0625C69.0375 44.0625 69.375 43.975 69.2875 44.2375C69.2875 44.2375 69.7375 44.325 69.5375 44.6125C69.2098 45.0032 68.7883 45.3042 68.3125 45.4875" fill="#00A651"/>
<path d="M66.075 44.275C66.075 44.275 65.8875 43.0375 66.625 42.65C66.625 42.65 66.7625 42.625 66.8375 42.8C66.8375 42.8 67.225 42.6375 67.2375 42.9625C67.2375 42.9625 67.4375 42.8125 67.4875 43.025C67.4875 43.025 67.9 42.9375 67.825 43.25C67.825 43.25 68.175 43.15 68.1375 43.45C68.1375 43.45 68.4875 43.325 68.4375 43.575C68.4375 43.575 68.8125 43.5 68.7125 43.8C68.7125 43.8 69.175 43.75 69.0375 44.0625C69.0375 44.0625 69.375 43.975 69.2875 44.2375C69.2875 44.2375 69.7375 44.325 69.5375 44.6125C69.2098 45.0032 68.7883 45.3042 68.3125 45.4875" stroke="black" stroke-width="0.0375" stroke-miterlimit="4.8"/>
<path d="M65.675 45.5125C65.675 45.5125 65.375 44.4875 65.95 44.225C65.95 44.225 66.0625 44.2 66.075 44.3C66.075 44.3 66.2 44.1375 66.3 44.2875C66.3 44.2875 66.5875 44.15 66.6625 44.3625C66.6625 44.3625 66.85 44.2 66.95 44.4375C66.95 44.4375 67.1375 44.3625 67.1375 44.5625C67.1375 44.5625 67.3875 44.4375 67.3875 44.6875C67.3875 44.6875 67.6375 44.5875 67.575 44.8375C67.575 44.8375 67.95 44.9 67.8375 45.075C67.8375 45.075 68.175 45.1625 68.05 45.3C68.05 45.3 68.4 45.2625 68.2125 45.5C68.2125 45.5 68.4875 45.4125 68.3375 45.7125C68.175 46.0125 67.6875 46.3375 67.3375 46.3875" fill="#00A651"/>
<path d="M65.675 45.5125C65.675 45.5125 65.375 44.4875 65.95 44.225C65.95 44.225 66.0625 44.2 66.075 44.3C66.075 44.3 66.2 44.1375 66.3 44.2875C66.3 44.2875 66.5875 44.15 66.6625 44.3625C66.6625 44.3625 66.85 44.2 66.95 44.4375C66.95 44.4375 67.1375 44.3625 67.1375 44.5625C67.1375 44.5625 67.3875 44.4375 67.3875 44.6875C67.3875 44.6875 67.6375 44.5875 67.575 44.8375C67.575 44.8375 67.95 44.9 67.8375 45.075C67.8375 45.075 68.175 45.1625 68.05 45.3C68.05 45.3 68.4 45.2625 68.2125 45.5C68.2125 45.5 68.4875 45.4125 68.3375 45.7125C68.175 46.0125 67.6875 46.3375 67.3375 46.3875" stroke="black" stroke-width="0.0375" stroke-miterlimit="4.8"/>
<path d="M66.0375 46.325C66.0375 46.325 65.4 45.7 65.7 45.525C65.7 45.525 65.825 45.5625 65.8875 45.7C65.8875 45.7 66.0375 45.475 66.1375 45.7C66.1375 45.7 66.3625 45.625 66.3625 45.7875L66.5375 45.9125C66.5375 45.9125 66.75 45.9 66.7125 46.0375C66.7125 46.0375 66.95 46 66.9375 46.125C66.9375 46.125 67.1375 46.1375 67.125 46.275C67.125 46.275 67.475 46.3375 67.3125 46.5125C67.3125 46.5125 66.7125 46.6375 66.275 46.4625C66.275 46.4625 66.0625 46.3875 66.0375 46.325Z" fill="#00A651" stroke="black" stroke-width="0.0375" stroke-miterlimit="4.8"/>
<path d="M68.2375 45.3V45.3375C68.6552 45.039 69.0188 44.6712 69.3125 44.25L69.275 44.225C69.275 44.2375 68.6 45.1625 68.2375 45.3ZM68.0124 45.1375L68.0375 45.175C68.3625 44.9875 69.025 44.1125 69.0375 44.075L69.025 44.05C69.0125 44.0625 68.3375 44.95 68.025 45.1375H68.0124ZM67.8249 45.0625L67.85 45.0875C68.1963 44.6982 68.4904 44.2654 68.725 43.8L68.6999 43.7875C68.6999 43.7875 68.1749 44.775 67.8249 45.0625ZM67.6625 44.8375H67.6999C67.7624 44.3625 68.4499 43.6 68.4499 43.5875L68.4125 43.575C68.3875 43.6 67.725 44.35 67.6625 44.8375ZM66.3 44.25H66.3375C66.2875 43.5625 66.85 42.8125 66.8625 42.8125L66.8249 42.7875C66.8249 42.7875 66.2375 43.5625 66.3 44.25ZM66.6625 44.3125H66.6999C66.5999 43.7625 67.25 42.9875 67.25 42.975L67.225 42.95C67.2 42.9875 66.5625 43.75 66.6625 44.3125ZM67.2125 44.5125H67.25C67.225 43.8875 67.825 43.2625 67.8375 43.2625L67.8125 43.225C67.8125 43.2375 67.1875 43.875 67.2125 44.5125ZM65.9 45.6375H65.9375C65.7125 45.05 66.0875 44.3125 66.1 44.3125L66.0625 44.2875C66.0625 44.2875 65.675 45.05 65.9 45.65V45.6375ZM66.15 45.6875L66.1875 45.675C65.9875 45.0875 66.3125 44.3 66.3125 44.3L66.2875 44.275C66.2875 44.275 65.95 45.0875 66.15 45.6875ZM67.1875 46.275V46.3C67.8125 46.0875 68.225 45.5125 68.225 45.5125L68.1875 45.4875C68.1875 45.4875 67.7875 46.05 67.1875 46.275ZM67.0625 46.1375V46.175C67.5625 45.95 68.025 45.325 68.025 45.325L68 45.3C68 45.3 67.5375 45.925 67.0625 46.1375ZM66.9375 46.0875L66.9625 46.125C67.3375 45.8375 67.8375 45.125 67.8375 45.125L67.8125 45.1C67.8125 45.1 67.3125 45.8125 66.9375 46.0875ZM66.3125 45.725H66.3625C66.3416 45.251 66.4496 44.7801 66.675 44.3625L66.6374 44.35C66.6374 44.35 66.2374 45.1 66.3249 45.725H66.3125ZM66.5875 45.9L66.6125 45.925C67.0125 45.5625 67.15 44.6 67.15 44.55H67.1125C67.1125 44.55 66.9875 45.55 66.5875 45.9ZM66.8625 46L66.8874 46.0375C67.2509 45.7324 67.5017 45.3143 67.6 44.85H67.5625C67.5625 44.85 67.4125 45.6 66.8625 46.0125V46ZM66.925 44.325V44.4375L66.5 45.8125L66.5375 45.825L66.9625 44.45C66.9 43.775 67.4875 43.0375 67.5 43.0375L67.4625 43.0125C67.4625 43.0125 66.925 43.675 66.925 44.325Z" fill="black"/>
<path d="M67.3749 44.6625C67.3749 44.6875 67.2374 45.625 66.7249 45.975L66.7499 46.0125C67.2749 45.65 67.3999 44.725 67.3999 44.675C67.6249 44.4125 68.1499 43.4625 68.1499 43.4625L68.1249 43.4375C68.1249 43.4375 67.5999 44.3875 67.3749 44.6625ZM65.8749 45.7C65.8749 45.7125 65.9499 46.2 66.0499 46.35L66.0874 46.3375C65.9874 46.175 65.8999 45.7 65.8999 45.6875L65.8624 45.7H65.8749ZM66.1124 45.7L66.0999 46.3625H66.1374V45.7H66.1124Z" fill="black"/>
<path d="M66.125 46.375L66.1625 46.3875C66.325 46.0375 66.375 45.7875 66.375 45.7875H66.3375C66.3375 45.7875 66.2875 46.025 66.125 46.375ZM66.1625 46.3875L66.1875 46.425C66.3732 46.314 66.5079 46.1344 66.5625 45.925H66.525C66.525 45.925 66.45 46.225 66.1625 46.3875ZM66.225 46.4125V46.45C66.525 46.425 66.725 46.0625 66.725 46.0375H66.7C66.7 46.0375 66.5 46.3875 66.225 46.4125Z" fill="black"/>
<path d="M66.25 46.4375V46.475C66.7375 46.4375 66.95 46.15 66.95 46.1375L66.925 46.125C66.925 46.125 66.7125 46.4 66.25 46.4375Z" fill="black"/>
<path d="M66.2875 46.4375V46.475C66.3 46.475 66.9125 46.6125 67.125 46.3L67.0875 46.275C66.9 46.575 66.2875 46.45 66.2875 46.4375Z" fill="black"/>
<path d="M52.6124 24.15V41.2C52.6124 46.775 62.6874 50.075 62.6874 50.075C62.6874 50.075 72.7499 46.775 72.7499 41.2V24.15H52.6124Z" stroke="black" stroke-width="0.35" stroke-miterlimit="4.8"/>
<path d="M0 0H40V30H0V0Z" fill="#012169"/>
<path d="M4.6875 0L19.9375 11.3125L35.125 0H40V3.875L25 15.0625L40 26.1875V30H35L20 18.8125L5.0625 30H0V26.25L14.9375 15.125L0 4V0H4.6875Z" fill="white"/>
<path d="M26.5 17.5625L40 27.5V30L23.0625 17.5625H26.5ZM15 18.8125L15.375 21L3.375 30H0L15 18.8125ZM40 0V0.1875L24.4375 11.9375L24.5625 9.1875L36.875 0H40ZM0 0L14.9375 11H11.1875L0 2.625V0Z" fill="#C8102E"/>
<path d="M15.0625 0V30H25.0625V0H15.0625ZM0 10V20H40V10H0Z" fill="white"/>
<path d="M0 12.0625V18.0625H40V12.0625H0ZM17.0625 0V30H23.0625V0H17.0625Z" fill="#C8102E"/>
</g>
<defs>
<clipPath id="clip0_103_188">
<rect width="80" height="60" fill="white"/>
</clipPath>
</defs>
</svg>
