<svg width="80" height="60" viewBox="0 0 80 60" fill="none" xmlns="http://www.w3.org/2000/svg">
<g clip-path="url(#clip0_103_322)">
<path d="M0 0H80V60H0" fill="#BD3D44"/>
<path d="M0 6.9125H80ZM0 16.125H80ZM0 25.375H80ZM0 34.625H80ZM0 43.875H80ZM0 53.125H80Z" fill="black"/>
<path d="M0 6.9125H80M0 16.125H80M0 25.375H80M0 34.625H80M0 43.875H80M0 53.125H80" stroke="white" stroke-width="4.625"/>
<path d="M0 0H45.6V32.3125H0" fill="#192F5D"/>
<path fill-rule="evenodd" clip-rule="evenodd" d="M3 3C2.44772 3 2 3.44772 2 4C2 4.55228 2.44772 5 3 5H3.46429C4.01657 5 4.46429 4.55228 4.46429 4C4.46429 3.44772 4.01657 3 3.46429 3H3ZM9.03571 3C8.48343 3 8.03571 3.44772 8.03571 4C8.03571 4.55228 8.48343 5 9.03571 5H9.96429C10.5166 5 10.9643 4.55228 10.9643 4C10.9643 3.44772 10.5166 3 9.96429 3H9.03571ZM15.5357 3C14.9834 3 14.5357 3.44772 14.5357 4C14.5357 4.55228 14.9834 5 15.5357 5H16.4643C17.0166 5 17.4643 4.55228 17.4643 4C17.4643 3.44772 17.0166 3 16.4643 3H15.5357ZM22.0357 3C21.4834 3 21.0357 3.44772 21.0357 4C21.0357 4.55228 21.4834 5 22.0357 5H22.9643C23.5166 5 23.9643 4.55228 23.9643 4C23.9643 3.44772 23.5166 3 22.9643 3H22.0357ZM28.5357 3C27.9834 3 27.5357 3.44772 27.5357 4C27.5357 4.55228 27.9834 5 28.5357 5H29.4643C30.0166 5 30.4643 4.55228 30.4643 4C30.4643 3.44772 30.0166 3 29.4643 3H28.5357ZM35.0357 3C34.4834 3 34.0357 3.44772 34.0357 4C34.0357 4.55228 34.4834 5 35.0357 5H35.9643C36.5166 5 36.9643 4.55228 36.9643 4C36.9643 3.44772 36.5166 3 35.9643 3H35.0357ZM41.5357 3C40.9834 3 40.5357 3.44772 40.5357 4C40.5357 4.55228 40.9834 5 41.5357 5H42C42.5523 5 43 4.55228 43 4C43 3.44772 42.5523 3 42 3H41.5357ZM3 8C2.44772 8 2 8.44772 2 9C2 9.55228 2.44772 10 3 10H3.46429C4.01657 10 4.46429 9.55228 4.46429 9C4.46429 8.44772 4.01657 8 3.46429 8H3ZM9.03571 8C8.48343 8 8.03571 8.44772 8.03571 9C8.03571 9.55228 8.48343 10 9.03571 10H9.96429C10.5166 10 10.9643 9.55228 10.9643 9C10.9643 8.44772 10.5166 8 9.96429 8H9.03571ZM15.5357 8C14.9834 8 14.5357 8.44772 14.5357 9C14.5357 9.55228 14.9834 10 15.5357 10H16.4643C17.0166 10 17.4643 9.55228 17.4643 9C17.4643 8.44772 17.0166 8 16.4643 8H15.5357ZM22.0357 8C21.4834 8 21.0357 8.44772 21.0357 9C21.0357 9.55228 21.4834 10 22.0357 10H22.9643C23.5166 10 23.9643 9.55228 23.9643 9C23.9643 8.44772 23.5166 8 22.9643 8H22.0357ZM28.5357 8C27.9834 8 27.5357 8.44772 27.5357 9C27.5357 9.55228 27.9834 10 28.5357 10H29.4643C30.0166 10 30.4643 9.55228 30.4643 9C30.4643 8.44772 30.0166 8 29.4643 8H28.5357ZM35.0357 8C34.4834 8 34.0357 8.44772 34.0357 9C34.0357 9.55228 34.4834 10 35.0357 10H35.9643C36.5166 10 36.9643 9.55228 36.9643 9C36.9643 8.44772 36.5166 8 35.9643 8H35.0357ZM41.5357 8C40.9834 8 40.5357 8.44772 40.5357 9C40.5357 9.55228 40.9834 10 41.5357 10H42C42.5523 10 43 9.55228 43 9C43 8.44772 42.5523 8 42 8H41.5357ZM2 14C2 13.4477 2.44772 13 3 13H3.46429C4.01657 13 4.46429 13.4477 4.46429 14C4.46429 14.5523 4.01657 15 3.46429 15H3C2.44772 15 2 14.5523 2 14ZM8.03571 14C8.03571 13.4477 8.48343 13 9.03571 13H9.96429C10.5166 13 10.9643 13.4477 10.9643 14C10.9643 14.5523 10.5166 15 9.96429 15H9.03571C8.48343 15 8.03571 14.5523 8.03571 14ZM14.5357 14C14.5357 13.4477 14.9834 13 15.5357 13H16.4643C17.0166 13 17.4643 13.4477 17.4643 14C17.4643 14.5523 17.0166 15 16.4643 15H15.5357C14.9834 15 14.5357 14.5523 14.5357 14ZM21.0357 14C21.0357 13.4477 21.4834 13 22.0357 13H22.9643C23.5166 13 23.9643 13.4477 23.9643 14C23.9643 14.5523 23.5166 15 22.9643 15H22.0357C21.4834 15 21.0357 14.5523 21.0357 14ZM27.5357 14C27.5357 13.4477 27.9834 13 28.5357 13H29.4643C30.0166 13 30.4643 13.4477 30.4643 14C30.4643 14.5523 30.0166 15 29.4643 15H28.5357C27.9834 15 27.5357 14.5523 27.5357 14ZM34.0357 14C34.0357 13.4477 34.4834 13 35.0357 13H35.9643C36.5166 13 36.9643 13.4477 36.9643 14C36.9643 14.5523 36.5166 15 35.9643 15H35.0357C34.4834 15 34.0357 14.5523 34.0357 14ZM40.5357 14C40.5357 13.4477 40.9834 13 41.5357 13H42C42.5523 13 43 13.4477 43 14C43 14.5523 42.5523 15 42 15H41.5357C40.9834 15 40.5357 14.5523 40.5357 14ZM3 18C2.44772 18 2 18.4477 2 19C2 19.5523 2.44772 20 3 20H3.46429C4.01657 20 4.46429 19.5523 4.46429 19C4.46429 18.4477 4.01657 18 3.46429 18H3ZM9.03571 18C8.48343 18 8.03571 18.4477 8.03571 19C8.03571 19.5523 8.48343 20 9.03571 20H9.96429C10.5166 20 10.9643 19.5523 10.9643 19C10.9643 18.4477 10.5166 18 9.96429 18H9.03571ZM15.5357 18C14.9834 18 14.5357 18.4477 14.5357 19C14.5357 19.5523 14.9834 20 15.5357 20H16.4643C17.0166 20 17.4643 19.5523 17.4643 19C17.4643 18.4477 17.0166 18 16.4643 18H15.5357ZM22.0357 18C21.4834 18 21.0357 18.4477 21.0357 19C21.0357 19.5523 21.4834 20 22.0357 20H22.9643C23.5166 20 23.9643 19.5523 23.9643 19C23.9643 18.4477 23.5166 18 22.9643 18H22.0357ZM28.5357 18C27.9834 18 27.5357 18.4477 27.5357 19C27.5357 19.5523 27.9834 20 28.5357 20H29.4643C30.0166 20 30.4643 19.5523 30.4643 19C30.4643 18.4477 30.0166 18 29.4643 18H28.5357ZM35.0357 18C34.4834 18 34.0357 18.4477 34.0357 19C34.0357 19.5523 34.4834 20 35.0357 20H35.9643C36.5166 20 36.9643 19.5523 36.9643 19C36.9643 18.4477 36.5166 18 35.9643 18H35.0357ZM41.5357 18C40.9834 18 40.5357 18.4477 40.5357 19C40.5357 19.5523 40.9834 20 41.5357 20H42C42.5523 20 43 19.5523 43 19C43 18.4477 42.5523 18 42 18H41.5357ZM2 24C2 23.4477 2.44772 23 3 23H3.46429C4.01657 23 4.46429 23.4477 4.46429 24C4.46429 24.5523 4.01657 25 3.46429 25H3C2.44772 25 2 24.5523 2 24ZM8.03571 24C8.03571 23.4477 8.48343 23 9.03571 23H9.96429C10.5166 23 10.9643 23.4477 10.9643 24C10.9643 24.5523 10.5166 25 9.96429 25H9.03571C8.48343 25 8.03571 24.5523 8.03571 24ZM14.5357 24C14.5357 23.4477 14.9834 23 15.5357 23H16.4643C17.0166 23 17.4643 23.4477 17.4643 24C17.4643 24.5523 17.0166 25 16.4643 25H15.5357C14.9834 25 14.5357 24.5523 14.5357 24ZM21.0357 24C21.0357 23.4477 21.4834 23 22.0357 23H22.9643C23.5166 23 23.9643 23.4477 23.9643 24C23.9643 24.5523 23.5166 25 22.9643 25H22.0357C21.4834 25 21.0357 24.5523 21.0357 24ZM27.5357 24C27.5357 23.4477 27.9834 23 28.5357 23H29.4643C30.0166 23 30.4643 23.4477 30.4643 24C30.4643 24.5523 30.0166 25 29.4643 25H28.5357C27.9834 25 27.5357 24.5523 27.5357 24ZM34.0357 24C34.0357 23.4477 34.4834 23 35.0357 23H35.9643C36.5166 23 36.9643 23.4477 36.9643 24C36.9643 24.5523 36.5166 25 35.9643 25H35.0357C34.4834 25 34.0357 24.5523 34.0357 24ZM40.5357 24C40.5357 23.4477 40.9834 23 41.5357 23H42C42.5523 23 43 23.4477 43 24C43 24.5523 42.5523 25 42 25H41.5357C40.9834 25 40.5357 24.5523 40.5357 24ZM3 27C2.44772 27 2 27.4477 2 28C2 28.5523 2.44772 29 3 29H3.46429C4.01657 29 4.46429 28.5523 4.46429 28C4.46429 27.4477 4.01657 27 3.46429 27H3ZM9.03571 27C8.48343 27 8.03571 27.4477 8.03571 28C8.03571 28.5523 8.48343 29 9.03571 29H9.96429C10.5166 29 10.9643 28.5523 10.9643 28C10.9643 27.4477 10.5166 27 9.96429 27H9.03571ZM15.5357 27C14.9834 27 14.5357 27.4477 14.5357 28C14.5357 28.5523 14.9834 29 15.5357 29H16.4643C17.0166 29 17.4643 28.5523 17.4643 28C17.4643 27.4477 17.0166 27 16.4643 27H15.5357ZM22.0357 27C21.4834 27 21.0357 27.4477 21.0357 28C21.0357 28.5523 21.4834 29 22.0357 29H22.9643C23.5166 29 23.9643 28.5523 23.9643 28C23.9643 27.4477 23.5166 27 22.9643 27H22.0357ZM28.5357 27C27.9834 27 27.5357 27.4477 27.5357 28C27.5357 28.5523 27.9834 29 28.5357 29H29.4643C30.0166 29 30.4643 28.5523 30.4643 28C30.4643 27.4477 30.0166 27 29.4643 27H28.5357ZM35.0357 27C34.4834 27 34.0357 27.4477 34.0357 28C34.0357 28.5523 34.4834 29 35.0357 29H35.9643C36.5166 29 36.9643 28.5523 36.9643 28C36.9643 27.4477 36.5166 27 35.9643 27H35.0357ZM41.5357 27C40.9834 27 40.5357 27.4477 40.5357 28C40.5357 28.5523 40.9834 29 41.5357 29H42C42.5523 29 43 28.5523 43 28C43 27.4477 42.5523 27 42 27H41.5357Z" fill="white"/>
</g>
<defs>
<clipPath id="clip0_103_322">
<rect width="80" height="60" fill="white"/>
</clipPath>
</defs>
</svg>
